<?xml version="1.0" encoding="utf-8"?>
<!-- Generator: Adobe Illustrator 27.8.1, SVG Export Plug-In . SVG Version: 6.00 Build 0)  -->
<svg version="1.1" id="Layer_1" xmlns="http://www.w3.org/2000/svg" xmlns:xlink="http://www.w3.org/1999/xlink" x="0px" y="0px"
	 viewBox="0 0 6000 3000" style="enable-background:new 0 0 6000 3000;" xml:space="preserve">
<g>
	<path d="M756.03,1691.34h178.58c7.09,0,13.89,2.85,18.86,7.9l43.62,44.33c16.47,16.73,4.61,45.03-18.86,45.03H636.39
		c-14.62,0-26.46-11.85-26.46-26.46v-525.99c0-14.62,11.85-26.46,26.46-26.46h342.26c23.53,0,35.36,28.4,18.79,45.1l-43.98,44.33
		c-4.97,5.01-11.73,7.83-18.79,7.83H756.03c-14.62,0-26.46,11.85-26.46,26.46v331.47C729.57,1679.49,741.42,1691.34,756.03,1691.34z
		"/>
	<path d="M1571.47,1788.6h-390.13c-14.62,0-26.46-11.85-26.46-26.46v-43.56c0-14.62,11.85-26.46,26.46-26.46h390.13
		c14.62,0,26.46,11.85,26.46,26.46v43.56C1597.94,1776.75,1586.09,1788.6,1571.47,1788.6z M1165.68,1576.88v-340.73
		c0-14.62,11.85-26.46,26.46-26.46h379.33c14.62,0,26.46,11.85,26.46,26.46v340.73c0,14.62-11.85,26.46-26.46,26.46h-379.33
		C1177.53,1603.35,1165.68,1591.5,1165.68,1576.88z M1307.93,1506.09h141.59c14.62,0,26.46-11.85,26.46-26.46v-145.45
		c0-14.62-11.85-26.46-26.46-26.46h-141.59c-14.62,0-26.46,11.85-26.46,26.46v145.45
		C1281.46,1494.24,1293.31,1506.09,1307.93,1506.09z"/>
	<path d="M1720.65,1762.14v-287.47c0-14.62,11.85-26.46,26.46-26.46h258.91c14.62,0,26.46-11.85,26.46-26.46v-88.33
		c0-14.62-11.85-26.46-26.46-26.46h-27.35c-14.62,0-26.46-11.85-26.46-26.46v-44.33c0-14.62,11.85-26.46,26.46-26.46h146.22
		c14.62,0,26.46,11.85,26.46,26.46v525.99c0,14.62-11.85,26.46-26.46,26.46h-377.78C1732.5,1788.6,1720.65,1776.75,1720.65,1762.14z
		 M2006.03,1543.91h-141.59c-14.62,0-26.46,11.85-26.46,26.46v94.5c0,14.62,11.85,26.46,26.46,26.46h141.59
		c14.62,0,26.46-11.85,26.46-26.46v-94.5C2032.49,1555.76,2020.65,1543.91,2006.03,1543.91z"/>
	<path d="M2613.17,1622.65h68.26c14.62,0,26.46,11.85,26.46,26.46v113.03c0,14.62-11.85,26.46-26.46,26.46h-378.56
		c-14.62,0-26.46-11.85-26.46-26.46v-525.99c0-14.62,11.85-26.46,26.46-26.46h378.56c14.62,0,26.46,11.85,26.46,26.46v278.98
		c0,14.62-11.85,26.46-26.46,26.46h-262.77c-14.62,0-26.46,11.85-26.46,26.46v97.59c0,14.62,11.85,26.46,26.46,26.46h141.59
		c14.62,0,26.46-11.85,26.46-26.46v-16.54C2586.7,1634.49,2598.55,1622.65,2613.17,1622.65z M2418.65,1445.11h141.59
		c14.62,0,26.46-11.85,26.46-26.46v-84.47c0-14.62-11.85-26.46-26.46-26.46h-141.59c-14.62,0-26.46,11.85-26.46,26.46v84.47
		C2392.19,1433.26,2404.03,1445.11,2418.65,1445.11z"/>
	<path d="M2977.48,1691.34h178.58c7.09,0,13.89,2.85,18.86,7.9l43.62,44.33c16.47,16.73,4.61,45.03-18.86,45.03h-341.85
		c-14.62,0-26.46-11.85-26.46-26.46v-525.99c0-14.62,11.85-26.46,26.46-26.46h342.26c23.53,0,35.36,28.4,18.79,45.1l-43.98,44.33
		c-4.97,5.01-11.73,7.83-18.79,7.83h-178.64c-14.62,0-26.46,11.85-26.46,26.46v331.47
		C2951.02,1679.49,2962.87,1691.34,2977.48,1691.34z"/>
	<path d="M3661.92,1399.35v-47.63c0-19.4-20.18-32.2-37.73-23.95l-102.99,48.44c-9.28,4.36-15.2,13.69-15.2,23.95v362.75
		c0,14.62-11.85,26.46-26.46,26.46h-65.94c-14.62,0-26.46-11.85-26.46-26.46v-526.76c0-14.62,11.85-26.46,26.46-26.46h65.94
		c14.62,0,26.46,11.85,26.46,26.46v8.28c0,19.58,20.53,32.38,38.11,23.76l112.3-55.04c3.63-1.78,7.61-2.7,11.65-2.7h89.36
		c14.62,0,26.46,11.85,26.46,26.46v162.43c0,14.62-11.85,26.46-26.46,26.46h-69.03C3673.77,1425.81,3661.92,1413.97,3661.92,1399.35
		z"/>
	<path d="M4010.83,1238.03v418.31c0,15.62,11.85,28.29,26.46,28.29h141.64c14.59,0,26.43-12.63,26.46-28.23l0.69-345.49
		c0.02-7.45,2.78-14.59,7.69-19.88l67.51-72.63c16.65-17.91,45.24-5.31,45.24,19.94v521.97c0,15.62-11.85,28.29-26.46,28.29h-378.56
		c-14.62,0-26.46-12.67-26.46-28.29v-455.09c0-7.5,2.79-14.7,7.75-20l62.85-67.19C3982.32,1200.21,4010.83,1212.83,4010.83,1238.03z
		"/>
	<path d="M4450.02,1488.89v-251.97c0-14.62,11.85-26.46,26.46-26.46h230.03c23.68,0,35.44,28.71,18.57,45.32l-45.03,44.33
		c-4.95,4.87-11.62,7.6-18.57,7.6h-72.3c-14.62,0-26.46,11.85-26.46,26.46v57.45c0,14.62,11.85,26.46,26.46,26.46h151.62
		c14.62,0,26.46,11.85,26.46,26.46v316.8c0,14.62-11.85,26.46-26.46,26.46h-234.24c-23.63,0-35.41-28.61-18.64-45.25l43.13-42.78
		c4.96-4.92,11.66-7.68,18.64-7.68h71.47c14.62,0,26.46-11.85,26.46-26.46v-123.83c0-14.62-11.85-26.46-26.46-26.46h-144.67
		C4461.87,1515.35,4450.02,1503.5,4450.02,1488.89z"/>
	<path d="M5027.38,1236.15v138.5c0,14.62,11.85,26.46,26.46,26.46h262c14.62,0,26.46,11.85,26.46,26.46v334.56
		c0,14.62-11.85,26.46-26.46,26.46h-67.48c-14.62,0-26.46-11.85-26.46-26.46v-237.3c0-14.62-11.85-26.46-26.46-26.46h-141.59
		c-14.62,0-26.46,11.85-26.46,26.46v237.3c0,14.62-11.85,26.46-26.46,26.46h-62.85c-14.62,0-26.46-11.85-26.46-26.46v-525.99
		c0-14.62,11.85-26.46,26.46-26.46h62.85C5015.53,1209.69,5027.38,1221.53,5027.38,1236.15z"/>
</g>
</svg>
