<?xml version="1.0" encoding="utf-8"?>
<!-- Generator: Adobe Illustrator 27.8.1, SVG Export Plug-In . SVG Version: 6.00 Build 0)  -->
<svg version="1.1" id="Layer_1" xmlns="http://www.w3.org/2000/svg" xmlns:xlink="http://www.w3.org/1999/xlink" x="0px" y="0px"
	 viewBox="0 0 6000 3000" style="enable-background:new 0 0 6000 3000;" xml:space="preserve">
<style type="text/css">
	.st0{fill:none;}
	.st1{display:none;}
	.st2{font-family:'Fleisch-Wolf';}
	.st3{font-size:900px;}
	.st4{stroke:#000000;stroke-width:5;stroke-miterlimit:10;}
</style>
<rect y="1076.47" class="st0" width="6000" height="847.06"/>
<text transform="matrix(1 0 0 1 524.1279 1755.0688)" class="st1 st2 st3">CODECRUSH</text>
<g>
	<g>
		<g>
			<path class="st4" d="M2621.93,654.64l141.6-70.81V452.77l-302.79,150.65v400.71l-131.06,64.77l131.06,99.43v295.25l302.79,228.98
				V1561.5l-141.6-108.46v-269.65l-102.44-76.83l102.44-51.22V654.64z"/>
		</g>
		<path d="M2880.01,1723.85c-2.95-4.5-5.65-9.18-8.08-14.01L2880.01,1723.85z"/>
		<g>
			<path d="M3269.04,1386.4l-52.69,39.97v118.7l-78.95,59.72c3.84,12.92,5.9,26.61,5.9,40.78c0,23.11-5.48,44.95-15.23,64.27
				l-8.08,14.01l-57.18,99.03l-62.6,108.43l-0.21-0.36l-0.21,0.36l-62.6-108.43l-57.18-99.03l-8.08-14.01
				c-9.75-19.32-15.23-41.16-15.23-64.27c0-14.17,2.06-27.86,5.9-40.78l-78.95-59.72v-118.7l-52.69-39.97l52.69-26.04v-161.09
				l121.72-60.56v52.69l-56.92,28.46v161.09l-41.18,20.59l41.18,30.89v108.4l32.58,24.96c5.66-8.43,12.21-16.22,19.51-23.24
				c25.7-24.73,60.63-39.94,99.12-39.94h0.68c38.49,0,73.42,15.21,99.12,39.94c7.3,7.02,13.85,14.81,19.51,23.24l32.58-24.96v-108.4
				l41.18-30.89l-41.18-20.59v-161.09l-56.92-28.46v-52.69l121.72,60.56v161.09L3269.04,1386.4z"/>
		</g>
		<path d="M3000.15,1387.78v0.02c-0.05,0-0.1-0.01-0.15-0.01C3000.05,1387.79,3000.1,1387.79,3000.15,1387.78z"/>
		<path d="M2800.76,846.86c-38.97,38.97-38.98,102.15-0.01,141.12c38.97,38.97,102.15,38.96,141.12-0.01L2800.76,846.86z"/>
		<g>
			<path class="st4" d="M3378.07,654.64l-141.6-70.81V452.77l302.79,150.65v400.71l131.06,64.77l-131.06,99.43v295.25
				l-302.79,228.98V1561.5l141.6-108.46v-269.65l102.44-76.83l-102.44-51.22V654.64z"/>
		</g>
		<polygon class="st4" points="3214.48,452.77 3000.34,823.68 3000,823.09 2999.66,823.68 2785.52,452.77 		"/>
		<path class="st4" d="M3094.63,1288.13c0,53.33-41.83,96.89-94.48,99.65c-0.05,0.01-0.1,0.01-0.15,0.01s-0.1,0-0.15-0.01
			c-52.65-2.76-94.48-46.32-94.48-99.65H3094.63z"/>
		<path class="st4" d="M3000,1387.79c-0.05,0-0.1,0.01-0.15,0.01v-0.02C2999.9,1387.79,2999.95,1387.79,3000,1387.79z"/>
		<path class="st4" d="M3199.24,846.86c38.97,38.97,38.98,102.15,0.01,141.12c-38.97,38.97-102.15,38.96-141.12-0.01L3199.24,846.86
			z"/>
		<rect x="2983.23" y="1040.71" class="st4" width="33.54" height="132.22"/>
	</g>
	<g>
		<path d="M2130.02,2124.34l-58.5,45l-59.5-44.5v183h97l-50,71l-119-46v-180l120-71L2130.02,2124.34z"/>
		<path d="M2360.01,2307.84l-93,71l-124.5-62v-164l93.5-71l124,62V2307.84z M2288.51,2307.84v-155h-74v155H2288.51z"/>
		<path d="M2622.51,2307.84l-93,71l-124.5-62v-164l124-49.5l-93.5-81l61.5-36l125.5,132.5V2307.84z M2551.01,2307.84v-155h-74v155
			H2551.01z"/>
		<path d="M2869.51,2210.84l-130,52v45h107.5l-50,71l-129.5-46v-180l93.5-71l108.5,59.5V2210.84z M2803.01,2217.84v-65h-63.5v65
			H2803.01z"/>
		<path d="M3094.51,2124.34l-58.5,45l-59.5-44.5v183h97l-50,71l-119-46v-180l120-71L3094.51,2124.34z"/>
		<path d="M3293.01,2174.34h-109.5v133.5h45l-45,71l-71.5-62v-199l71.5-36v78l61-78L3293.01,2174.34z"/>
		<path d="M3572.5,2308.34l-44.5,70.5l-71.5-62l-62.5,62l-83.5-62v-199l71.5-36v226h74.5v-190l71.5-36v226.5H3572.5z"/>
		<path d="M3797.49,2277.34l-93,86h-111.5l34.5-55h98.5v-78h-31l-45,62l-70-62v-46.5l93.5-86h111.5l-34.5,55h-98.5v77.5h30.5l45-62
			l70,62V2277.34z"/>
		<path d="M4054.99,2372.84l-93,86h-45l66.5-60v-246h-74.5v155h44.5l-44.5,71l-71.5-62v-294.5l71.5-36v157.5l63-62l83,62V2372.84z"
			/>
	</g>
</g>
</svg>
