<?xml version="1.0" encoding="utf-8"?>
<!-- Generator: Adobe Illustrator 27.8.1, SVG Export Plug-In . SVG Version: 6.00 Build 0)  -->
<svg version="1.1" id="Layer_1" xmlns="http://www.w3.org/2000/svg" xmlns:xlink="http://www.w3.org/1999/xlink" x="0px" y="0px"
	 viewBox="0 0 6000 3000" style="enable-background:new 0 0 6000 3000;" xml:space="preserve">
<style type="text/css">
	.st0{stroke:#000000;stroke-width:5;stroke-miterlimit:10;}
</style>
<g>
	<g>
		<path d="M2097.81,2192.27l-12.38,9.52c-6.75,5.19-16.13,5.25-22.95,0.16l0,0c-19.78-14.8-47.97-0.68-47.97,24.02v93.1
			c0,16.57,13.43,30,30,30h9.18c24.31,0,38.53,27.4,24.53,47.27l-3.22,4.57c-7.93,11.26-22.5,15.67-35.34,10.71l-77.96-30.14
			c-11.56-4.47-19.18-15.59-19.18-27.98v-142.33c0-10.6,5.6-20.42,14.72-25.82l89.8-53.13c9.53-5.64,21.38-5.57,30.85,0.18
			l17.2,10.44C2113.11,2153.79,2114.52,2179.42,2097.81,2192.27z"/>
		<path d="M2350.72,2358.08l-66.35,50.66c-9.09,6.94-21.34,8.11-31.58,3.01l-91.15-45.39c-10.19-5.07-16.63-15.47-16.63-26.85
			v-130.54c0-9.38,4.39-18.22,11.86-23.89l66.78-50.71c9.1-6.91,21.34-8.05,31.56-2.94l90.72,45.36
			c10.16,5.08,16.58,15.47,16.58,26.83v130.62C2362.51,2343.59,2358.15,2352.4,2350.72,2358.08z M2291.01,2319.07v-95
			c0-16.57-13.43-30-30-30h-14c-16.57,0-30,13.43-30,30v95c0,16.57,13.43,30,30,30h14
			C2277.58,2349.07,2291.01,2335.64,2291.01,2319.07z"/>
		<path d="M2613.22,2358.08l-66.35,50.66c-9.09,6.94-21.34,8.11-31.58,3.01l-91.15-45.39c-10.19-5.07-16.63-15.47-16.63-26.85
			v-125.1c0-12.27,7.48-23.31,18.88-27.86l59.36-23.69c20.88-8.33,25.51-35.82,8.52-50.54l-24.61-21.32
			c-15.53-13.45-13.24-38.19,4.49-48.57l4.81-2.82c12.04-7.05,27.34-4.87,36.94,5.26l100.9,106.53c5.28,5.57,8.22,12.96,8.22,20.63
			v162.21C2625.01,2343.59,2620.65,2352.4,2613.22,2358.08z M2553.51,2319.07v-95c0-16.57-13.43-30-30-30h-14
			c-16.57,0-30,13.43-30,30v95c0,16.57,13.43,30,30,30h14C2540.08,2349.07,2553.51,2335.64,2553.51,2319.07z"/>
		<path d="M2853.15,2259.62l-97.21,38.89c-8.41,3.36-13.93,11.51-13.93,20.57v0c0,16.57,13.43,30,30,30h19.68
			c24.31,0,38.53,27.4,24.53,47.27l-3.6,5.11c-7.75,11.01-21.88,15.5-34.57,11l-88.08-31.29c-11.96-4.25-19.96-15.57-19.96-28.27
			v-143.93c0-9.38,4.39-18.22,11.86-23.89l66.14-50.23c9.43-7.16,22.19-8.1,32.57-2.41l75.86,41.6c9.6,5.27,15.57,15.35,15.57,26.3
			v31.43C2872.01,2244.03,2864.54,2255.06,2853.15,2259.62z M2805.51,2229.07v-5c0-16.57-13.43-30-30-30h-3.5
			c-16.57,0-30,13.43-30,30v5c0,16.57,13.43,30,30,30h3.5C2792.08,2259.07,2805.51,2245.64,2805.51,2229.07z"/>
		<path d="M3062.3,2192.27l-12.38,9.52c-6.75,5.19-16.13,5.25-22.95,0.16l0,0c-19.78-14.8-47.97-0.68-47.97,24.02v93.1
			c0,16.57,13.43,30,30,30h9.18c24.31,0,38.53,27.4,24.53,47.27l-3.22,4.57c-7.93,11.26-22.5,15.67-35.34,10.71l-77.96-30.14
			c-11.56-4.47-19.18-15.59-19.18-27.98v-142.33c0-10.6,5.6-20.42,14.72-25.82l89.8-53.13c9.53-5.64,21.38-5.57,30.85,0.18
			l17.2,10.44C3077.6,2153.79,3079.01,2179.42,3062.3,2192.27z"/>
		<path d="M3245.9,2215.57h-29.9c-16.57,0-30,13.43-30,30v73.5c0,16.57,13.43,30,30,30l0,0c6.5,0,10.45,7.18,6.97,12.67
			l-18.31,28.89c-9.82,15.5-31.13,18.63-44.99,6.61l-34.82-30.19c-6.57-5.7-10.35-13.97-10.35-22.67v-166.82
			c0-11.33,6.39-21.7,16.51-26.8l11.5-5.79c19.95-10.05,43.49,4.46,43.49,26.8v20.6c0,2.85,3.61,4.09,5.36,1.85l27.01-34.54
			c13.42-17.16,40.08-14.75,50.2,4.55l3.89,7.42C3282.95,2191.62,3268.46,2215.57,3245.9,2215.57z"/>
		<path d="M3559.69,2373.83l-19.36,30.68c-5.17,8.19-16.42,9.85-23.73,3.51l-46.51-40.33c-6.25-5.42-15.62-5.11-21.5,0.72
			l-42.43,42.09c-5.55,5.51-14.29,6.13-20.57,1.47l-66.2-49.15c-4.02-2.98-6.39-7.69-6.39-12.7v-181.3c0-5.97,3.37-11.44,8.7-14.13
			l39.87-20.07c10.52-5.3,22.93,2.35,22.93,14.13v184.52c0,8.73,7.08,15.82,15.82,15.82H3429c16.57,0,30-13.43,30-30v-150.26
			c0-5.97,3.37-11.44,8.7-14.13l39.87-20.07c10.52-5.3,22.93,2.35,22.93,14.13v185.02c0,8.73,7.08,15.82,15.82,15.82l0,0
			C3558.77,2349.57,3566.34,2363.3,3559.69,2373.83z"/>
		<path d="M3790.36,2327.48l-74.75,69.12c-5.54,5.13-12.82,7.97-20.37,7.97h-51.43c-21.02,0-33.82-23.14-22.65-40.94v0
			c5.49-8.75,15.09-14.06,25.41-14.06h51.9c16.57,0,30-13.43,30-30v-18c0-16.57-13.43-30-30-30l0,0c-0.63,0-1.22,0.3-1.59,0.81
			l-24.99,34.43c-10.41,14.34-30.91,16.58-44.17,4.84l-35.14-31.13c-6.43-5.69-10.11-13.87-10.11-22.46v-19.83
			c0-8.39,3.51-16.4,9.69-22.08l75.2-69.17c5.54-5.09,12.79-7.92,20.31-7.92h51.47c21.02,0,33.82,23.14,22.65,40.94l0,0
			c-5.49,8.75-15.09,14.06-25.41,14.06h-51.9c-16.57,0-30,13.43-30,30v17.5c0,16.57,13.43,30,30,30l0,0c0.31,0,0.61-0.15,0.79-0.4
			l25.29-34.84c10.41-14.34,30.91-16.58,44.17-4.84l35.14,31.13c6.43,5.69,10.11,13.87,10.11,22.46v20.38
			C3799.99,2313.82,3796.5,2321.8,3790.36,2327.48z"/>
		<path d="M4047.85,2422.98l-74.75,69.12c-5.54,5.13-12.82,7.97-20.37,7.97h0c-11.71,0-17.26-14.43-8.56-22.28l31.91-28.79
			c6.3-5.69,9.9-13.78,9.9-22.27v-202.66c0-16.57-13.43-30-30-30h-14.5c-16.57,0-30,13.43-30,30v95c0,16.57,13.43,30,30,30l0,0
			c6.31,0,10.15,6.94,6.8,12.29l-18.19,29.03c-9.78,15.6-31.17,18.79-45.07,6.73l-34.69-30.08c-6.57-5.7-10.35-13.97-10.35-22.67
			v-262.32c0-11.33,6.39-21.7,16.51-26.8l11.5-5.79c19.95-10.05,43.49,4.46,43.49,26.8v37.19c0,26.61,32.08,40.05,51.04,21.38h0
			c6.88-6.77,17.67-7.5,25.4-1.73l57.51,42.96c7.58,5.66,12.05,14.57,12.05,24.03v200.84
			C4057.49,2409.32,4053.99,2417.3,4047.85,2422.98z"/>
	</g>
	<g>
		<path d="M2880.01,1771.01c-2.95-4.5-5.65-9.18-8.08-14.01L2880.01,1771.01z"/>
		<path d="M3000.15,1434.94v0.02c-0.05,0-0.1-0.01-0.15-0.01C3000.05,1434.95,3000.1,1434.95,3000.15,1434.94z"/>
		<path class="st0" d="M3000,1434.95c-0.05,0-0.1,0.01-0.15,0.01v-0.02C2999.9,1434.95,2999.95,1434.95,3000,1434.95z"/>
		<g>
			<g>
				<path class="st0" d="M2660.62,682.45l64.22-32.11c23.71-11.86,38.69-36.1,38.69-62.61v0c0-40.38-42.46-66.68-78.61-48.69
					l-185.36,92.23c-23.78,11.83-38.82,36.11-38.82,62.67v324.31c0,20.23-11.48,38.71-29.62,47.68l0,0
					c-46.63,23.04-52.73,87.09-11.29,118.52l13.22,10.03c17.45,13.23,27.69,33.87,27.69,55.77v225.67
					c0,21.94,10.28,42.6,27.78,55.83l198.04,149.77c31.63,23.92,76.97,1.36,76.97-38.29v0c0-21.78-10.14-42.33-27.43-55.57
					l-86.73-66.43c-17.29-13.25-27.43-33.79-27.43-55.57v-200.09c0-22.03-10.37-42.78-28-56l-17.42-13.07
					c-26.19-19.65-22.56-59.99,6.73-74.63v0c23.71-11.86,38.7-36.1,38.7-62.61V745.06C2621.93,718.54,2636.91,694.31,2660.62,682.45
					z"/>
			</g>
			<path d="M2999.79,1978.47l-62.6-108.43l-57.18-99.03l-7.74-13.43c-0.22-0.39-0.44-0.78-0.64-1.18
				c-9.56-19.17-14.93-40.8-14.93-63.67c0-14.17,2.06-27.86,5.9-40.78l-78.95-59.72v-108.77c0-6.26-2.93-12.15-7.91-15.93
				l-19.02-14.43c-11.84-8.98-10.1-27.28,3.23-33.86l12.57-6.21c6.82-3.37,11.14-10.32,11.14-17.93v-136.28
				c0-7.59,4.3-14.53,11.09-17.91l81.72-40.66c13.3-6.62,28.91,3.06,28.91,17.91v8.04c0,7.58-4.28,14.5-11.06,17.89l-34.81,17.4
				c-6.78,3.39-11.06,10.31-11.06,17.89v136.37c0,7.58-4.28,14.5-11.06,17.89l-1.18,0.59c-13.3,6.65-14.95,24.97-3.06,33.89
				l7.3,5.47c5.04,3.78,8,9.7,8,16v88.53c0,6.22,2.9,12.09,7.84,15.88l8.96,6.86c8.3,6.36,20.15,5.31,27.06-2.53
				c2.63-2.98,5.37-5.86,8.24-8.61c25.7-24.73,60.63-39.94,99.12-39.94h0.68c38.49,0,73.42,15.21,99.12,39.94
				c2.86,2.76,5.61,5.63,8.24,8.61c6.9,7.85,18.76,8.89,27.06,2.53l8.96-6.86c4.94-3.78,7.84-9.65,7.84-15.88v-88.53
				c0-6.29,2.96-12.22,8-16l7.3-5.47c11.89-8.92,10.24-27.24-3.06-33.89l-1.18-0.59c-6.78-3.39-11.06-10.31-11.06-17.89v-136.37
				c0-7.58-4.28-14.5-11.06-17.89l-34.81-17.4c-6.78-3.39-11.06-10.31-11.06-17.89v-8.04c0-14.85,15.61-24.52,28.91-17.91
				l81.72,40.66c6.8,3.38,11.09,10.32,11.09,17.91v136.28c0,7.61,4.32,14.56,11.14,17.93l12.57,6.21
				c13.32,6.58,15.07,24.88,3.23,33.86l-19.02,14.43c-4.98,3.78-7.91,9.68-7.91,15.93v98.82c0,6.27-2.94,12.17-7.93,15.95
				l-71.02,53.72c3.84,12.92,5.9,26.61,5.9,40.78c0,22.87-5.37,44.5-14.93,63.67c-0.2,0.4-0.41,0.79-0.64,1.18l-7.74,13.43
				l-57.18,99.03l-62.6,108.43"/>
			<path d="M2869.92,963.18c-45.56-45.56-115.9,20.43-72.7,68.24c1.14,1.26,2.32,2.51,3.54,3.72
				c38.97,38.97,102.15,38.96,141.12-0.01L2869.92,963.18z"/>
			<g>
				<path class="st0" d="M3339.38,682.45l-86.77-43.39c-9.89-4.95-16.14-15.06-16.14-26.12v0c0-51.98,54.65-85.82,101.18-62.67
					l162.79,80.99c23.78,11.83,38.82,36.11,38.82,62.67v324.31c0,20.23,11.48,38.71,29.62,47.68l0,0
					c46.63,23.04,52.73,87.09,11.29,118.52l-13.22,10.03c-17.45,13.23-27.69,33.87-27.69,55.77v225.67
					c0,21.94-10.28,42.6-27.78,55.83l-198.04,149.77c-31.63,23.92-76.97,1.36-76.97-38.29v0c0-21.78,10.14-42.33,27.43-55.57
					l86.73-66.43c17.29-13.25,27.43-33.79,27.43-55.57v-200.09c0-22.03,10.37-42.78,28-56l17.42-13.07
					c26.19-19.65,22.56-59.99-6.73-74.63v0c-23.71-11.86-38.7-36.1-38.7-62.61V745.06C3378.07,718.54,3363.09,694.31,3339.38,682.45
					z"/>
			</g>
			<path class="st0" d="M3093.24,499.93c53.89,0,87.56,58.33,60.62,105l-153.52,265.91l-0.34-0.59l-0.34,0.59l-153.52-265.91
				c-26.94-46.67,6.74-105,60.62-105H3093.24z"/>
			<path class="st0" d="M3057.88,1335.29c21.84,0,36.6,22.7,27.3,42.45c-15.24,32.37-47.36,55.22-85.03,57.2
				c-0.05,0.01-0.1,0.01-0.15,0.01s-0.1,0-0.15-0.01c-37.66-1.97-69.79-24.83-85.03-57.2c-9.3-19.76,5.46-42.45,27.3-42.45H3057.88z
				"/>
			<path class="st0" d="M3130.08,963.18c45.56-45.56,115.9,20.43,72.7,68.24c-1.14,1.26-2.32,2.51-3.54,3.72
				c-38.97,38.97-102.15,38.96-141.12-0.01L3130.08,963.18z"/>
			<path class="st0" d="M3016.77,1097.87v112.22c0,5.52-4.48,10-10,10h-13.54c-5.52,0-10-4.48-10-10v-112.22c0-5.52,4.48-10,10-10
				h13.54C3012.29,1087.87,3016.77,1092.34,3016.77,1097.87z"/>
		</g>
	</g>
</g>
</svg>
