<?xml version="1.0" encoding="utf-8"?>
<!-- Generator: Adobe Illustrator 27.8.1, SVG Export Plug-In . SVG Version: 6.00 Build 0)  -->
<svg version="1.1" id="Layer_1" xmlns="http://www.w3.org/2000/svg" xmlns:xlink="http://www.w3.org/1999/xlink" x="0px" y="0px"
	 viewBox="0 0 6000 3000" style="enable-background:new 0 0 6000 3000;" xml:space="preserve">
<style type="text/css">
	.st0{fill:#231F20;}
</style>
<g>
	<path class="st0" d="M1178.84,1724.02l-35.75-31.82c-12.6-11.22-32.11-9.96-42.89,3.03c-38.43,46.28-91.88,67.44-151.28,67.44
		c-111.6,0-209.69-84.6-209.69-219.59c0-133.2,99.89-217.8,209.69-217.8c61.78,0,113.61,26.5,151.53,71.54
		c10.59,12.57,29.21,14.5,41.98,4.15l38.87-31.5c12.88-10.44,14.94-29.41,4.41-42.21c-58.62-71.3-143.3-107.28-236.79-107.28
		c-167.39,0-320.39,128.7-320.39,323.1c0,196.19,151.2,324.89,318.59,324.89c91.82,0,174.1-33.01,234.26-101.67
		C1192.27,1753.87,1191.18,1735,1178.84,1724.02z"/>
	<path class="st0" d="M1533.03,1219.98c-169.2,0-320.4,129.6-320.4,323.99c0,196.2,151.2,324,320.4,324
		c168.29,0,320.39-127.8,320.39-324C1853.42,1349.58,1701.32,1219.98,1533.03,1219.98z M1533.03,1762.67
		c-111.6,0-209.7-83.7-209.7-218.7c0-133.19,98.1-218.69,209.7-218.69c110.7,0,209.69,85.5,209.69,218.69
		C1742.72,1678.97,1643.73,1762.67,1533.03,1762.67z"/>
	<path class="st0" d="M2090.12,1228.98h-170.7c-16.57,0-30,13.43-30,30v41.7c0,16.56,13.43,30,30,30h3.42
		c18.08,0,32.05,15.87,29.76,33.8l-58.86,460.69c-2.29,17.93,11.68,33.8,29.75,33.8h166.63c192.6,0,294.29-163.8,294.29-324
		C2384.41,1380.18,2289.92,1228.98,2090.12,1228.98z M2091.02,1757.27h-46.97c-18.06,0-32.03-15.84-29.76-33.76l46.41-366.6
		c1.89-14.99,14.65-26.23,29.76-26.23h0.56c125.1,0,182.7,99.9,182.7,203.4C2273.72,1643.87,2208.92,1757.27,2091.02,1757.27z"/>
	<path class="st0" d="M2580.01,1330.68h231.6c16.57,0,30-13.44,30-30v-41.7c0-16.57-13.43-30-30-30h-338.7c-16.56,0-30,13.43-30,30
		v569.99c0,16.57,13.44,30,30,30h338.7c16.57,0,30-13.43,30-30v-41.7c0-16.57-13.43-30-30-30h-231.6c-16.56,0-30-13.43-30-30
		v-107.39c0-16.57,13.44-30,30-30h171.3c16.57,0,30-13.44,30-30v-41.7c0-16.57-13.43-30-30-30h-171.3c-16.56,0-30-13.44-30-30v-97.5
		C2550.01,1344.11,2563.45,1330.68,2580.01,1330.68z"/>
	<path class="st0" d="M3398.88,1718.48l-38.87-31.5c-12.77-10.35-31.4-8.42-41.98,4.15c-37.92,45.04-89.76,71.54-151.53,71.54
		c-109.8,0-209.7-84.6-209.7-217.79c0-135,98.1-219.6,209.7-219.6c59.4,0,112.85,21.16,151.28,67.44
		c10.78,12.99,30.28,14.25,42.89,3.03l35.74-31.82c12.35-10.99,13.43-29.85,2.54-42.28c-60.16-68.66-142.44-101.67-234.25-101.67
		c-167.4,0-318.6,128.7-318.6,324.9c0,194.39,150.3,323.09,320.4,323.09c93.49,0,178.17-35.98,236.79-107.28
		C3413.81,1747.89,3411.75,1728.92,3398.88,1718.48z"/>
	<path class="st0" d="M3711.64,1589.88H3587.8c-5.52,0-10-4.48-10-10v-7c0-5.52,4.48-10,10-10h119.6c120.6,0,180.9-84.6,180.9-167.4
		s-61.2-166.5-184.5-166.5h-203.1c-16.57,0-30,13.43-30,30v569.99c0,16.57,13.43,30,30,30h47.1c16.57,0,30-13.43,30-30v-107.4
		c0-16.56,13.43-30,30-30h25.55c13.45,0,25.26,8.96,28.89,21.91l35.67,127.31h0.01l0,0c2.41,8.62,10.27,14.58,19.22,14.58h115.96
		c16.57,0,30-13.43,30-30v-38.1c0-16.57-13.43-30-30-30h-29.14c-13.46,0-25.27-8.96-28.89-21.92l-34.54-123.55
		C3736.91,1598.84,3725.09,1589.88,3711.64,1589.88z M3577.8,1360.68c0-16.57,13.43-30,30-30h96.9c48.6,0,72.9,32.4,72.9,64.8
		c0,33.3-24.3,65.7-72.9,65.7h-96.9c-16.57,0-30-13.44-30-30V1360.68z"/>
	<path class="st0" d="M4294.48,1228.98c-16.57,0-30,13.43-30,30v392.99c0,69.3-52.19,110.7-109.79,110.7
		c-63.9,0-109.8-37.8-109.8-113.4v-390.29c0-16.57-13.43-30-30-30h-47.1c-16.57,0-30,13.43-30,30v401.99c0,123.3,95.4,207,194.4,207
		c63,0,110.69-26.1,132.29-62.1v23.1c0,16.57,13.43,30,30,30h47.1c16.57,0,30-13.43,30-30v-569.99c0-16.57-13.43-30-30-30H4294.48z"
		/>
	<path class="st0" d="M4701.88,1514.28l-86.4-43.2c-43.2-21.6-58.5-48.6-58.5-79.2c0-36,23.4-68.4,73.8-68.4
		c37.43,0,76.72,24.28,105.97,65.07c9.92,13.83,29.47,16.43,42.84,5.88l37.44-29.56c12.56-9.92,15.18-27.99,5.83-40.98
		c-47.64-66.24-109.72-103.91-192.08-103.91c-108.9,0-183.6,82.8-183.6,179.1c0,86.4,61.2,143.09,117.9,171.89l81,40.5
		c38.7,19.8,61.2,44.1,61.2,81c0,40.5-30.6,72-77.4,72c-39.74,0-78.28-26.48-106.27-62.22c-10.27-13.12-29.2-15.47-42.28-5.15
		l-38.14,30.11c-12.88,10.17-15.16,28.78-5.21,41.82c46.79,61.34,111,98.93,190.1,98.93c114.3,0,189-78.3,189-180
		C4817.08,1598.87,4763.08,1544.88,4701.88,1514.28z"/>
	<path class="st0" d="M5232.88,1258.98v199.2c0,16.57-13.43,30-30,30h-130.35c-19.27,0-33.55-17.91-29.24-36.7l42.58-185.8
		c4.31-18.79-9.97-36.7-29.24-36.7h-45.54c-13.99,0-26.12,9.67-29.24,23.3l-48.72,212.6c-3.12,13.63-15.26,23.3-29.24,23.3h-30.7
		c-16.57,0-30,13.43-30,30v41.7c0,16.57,13.43,30,30,30h18.67c6.42,0,11.17,5.96,9.75,12.22l-50.08,220.22
		c-4.27,18.77,10,36.65,29.25,36.65h45.57c14.01,0,26.15-9.69,29.25-23.35l50.58-222.4c3.11-13.66,15.25-23.35,29.25-23.35h167.46
		c16.57,0,30,13.43,30,30v209.09c0,16.57,13.43,30,30,30h47.09c16.57,0,30-13.43,30-30v-569.99c0-16.57-13.43-30-30-30h-47.09
		C5246.31,1228.98,5232.88,1242.41,5232.88,1258.98z"/>
</g>
</svg>
