<?xml version="1.0" encoding="utf-8"?>
<!-- Generator: Adobe Illustrator 27.8.1, SVG Export Plug-In . SVG Version: 6.00 Build 0)  -->
<svg version="1.1" id="Layer_1" xmlns="http://www.w3.org/2000/svg" xmlns:xlink="http://www.w3.org/1999/xlink" x="0px" y="0px"
	 viewBox="0 0 6000 3000" style="enable-background:new 0 0 6000 3000;" xml:space="preserve">
<style type="text/css">
	.st0{fill:url(#SVGID_1_);}
	.st1{fill:url(#SVGID_00000179608929128839467480000004078726476481435297_);}
	.st2{fill:url(#SVGID_00000097470315704149194990000001363083320918161316_);}
	.st3{fill:url(#SVGID_00000176017248262940872990000007762530589515276673_);}
	.st4{fill:url(#SVGID_00000175291836128899701880000004189915518920756924_);}
	.st5{fill:url(#SVGID_00000005984419354944382280000000379339046366658465_);}
	.st6{fill:url(#SVGID_00000013167587345602041710000017267157484397210499_);}
	.st7{fill:url(#SVGID_00000140718485297097265730000011010837750160092337_);}
	.st8{fill:url(#SVGID_00000131341856489752481840000002905877428696059536_);}
	.st9{fill:url(#SVGID_00000027598310148536933020000007296619973911421615_);}
	.st10{fill:url(#SVGID_00000047759113500337578040000013398071269304064184_);}
	.st11{fill:url(#SVGID_00000047033294172764562040000003557666888865850007_);}
	.st12{fill:url(#SVGID_00000158738385143766496810000001830047686201239724_);}
	.st13{fill:url(#SVGID_00000042695954313827971140000009827566048863152311_);}
	.st14{fill:url(#SVGID_00000042694218406183192510000018120405971131265469_);}
	.st15{fill:url(#SVGID_00000124123863113120866950000005496185074580597661_);}
</style>
<linearGradient id="SVGID_1_" gradientUnits="userSpaceOnUse" x1="3492.0623" y1="1551.3752" x2="2901.7368" y2="1551.3752">
	<stop  offset="0" style="stop-color:#E90075"/>
	<stop  offset="1" style="stop-color:#D4CF00"/>
</linearGradient>
<path class="st0" d="M3488.63,1742.45c-57.53,78.84-149.72,130.77-254.16,133.36c-18.38,0.45-36.43-0.63-54.02-3.17
	c-160.72-22.97-284.22-164.77-278.51-332.5c5.39-158.54,124.51-288.24,278.34-310.06c15.03-2.14,30.39-3.24,46.01-3.24
	c107.74,0,203.24,52.52,262.26,133.35c8.66,11.84,0.19,28.5-14.48,28.5h-78.53c-2.74,0-5.46-0.28-8.11-0.81
	c-6.66-1.31-12.93-4.26-18.2-8.65c-49.58-41.21-117.23-61.41-189.32-46.95c-2.48,0.5-4.96,1.03-7.46,1.61
	c-80.44,18.75-143.86,81.53-163.21,161.82c-31.64,131.24,52.45,249.9,171.03,274.68c14.85,3.12,30.24,4.74,46.01,4.74
	c54.42,0,104.3-19.43,143.08-51.72c5.23-4.36,11.46-7.25,18.06-8.55c2.66-0.54,5.38-0.8,8.12-0.8h78.53
	C3488.66,1714.07,3497.23,1730.66,3488.63,1742.45z"/>
<linearGradient id="SVGID_00000107559937026203808190000009359204733510674823_" gradientUnits="userSpaceOnUse" x1="3814.8008" y1="1226.8802" x2="3820.6531" y2="1226.8802">
	<stop  offset="0" style="stop-color:#E90075"/>
	<stop  offset="1" style="stop-color:#D4CF00"/>
</linearGradient>
<path style="fill:url(#SVGID_00000107559937026203808190000009359204733510674823_);" d="M3820.65,1226.84v0.08
	c-1.94-0.05-3.9-0.08-5.85-0.08H3820.65z"/>
<linearGradient id="SVGID_00000018923640548036301430000008655576182413517988_" gradientUnits="userSpaceOnUse" x1="4190.8901" y1="1648.7804" x2="4190.8784" y2="1648.7804">
	<stop  offset="0" style="stop-color:#E90075"/>
	<stop  offset="1" style="stop-color:#D4CF00"/>
</linearGradient>
<path style="fill:url(#SVGID_00000018923640548036301430000008655576182413517988_);" d="M4190.89,1649.97h-0.01v-2.38
	C4190.88,1648.39,4190.88,1649.18,4190.89,1649.97z"/>
<linearGradient id="SVGID_00000027576374281791946640000006901414115083585687_" gradientUnits="userSpaceOnUse" x1="4589.6709" y1="1648.7804" x2="4589.6592" y2="1648.7804">
	<stop  offset="0" style="stop-color:#E90075"/>
	<stop  offset="1" style="stop-color:#D4CF00"/>
</linearGradient>
<path style="fill:url(#SVGID_00000027576374281791946640000006901414115083585687_);" d="M4589.67,1647.59v2.38h-0.01
	C4589.67,1649.18,4589.67,1648.39,4589.67,1647.59z"/>
<linearGradient id="SVGID_00000052818071764289891610000008942141970972352681_" gradientUnits="userSpaceOnUse" x1="4085.9082" y1="1551.375" x2="3571.27" y2="1551.375">
	<stop  offset="0" style="stop-color:#E90075"/>
	<stop  offset="1" style="stop-color:#D4CF00"/>
</linearGradient>
<path style="fill:url(#SVGID_00000052818071764289891610000008942141970972352681_);" d="M4044.24,1875.91h-66.68
	c-12.53,0-24.39-5.65-32.28-15.37l-36.86-45.39l-121.69-149.6c-1.67-2.05-3.5-3.91-5.49-5.58c-7.43-6.26-16.89-9.77-26.78-9.77
	h-6.52c-22.97,0-41.59,18.62-41.59,41.59v142.53c0,15.25-8.21,28.59-20.46,35.82c-6.19,3.67-13.41,5.77-21.13,5.77h-51.9
	c-7.72,0-14.94-2.1-21.13-5.77c-12.25-7.23-20.46-20.57-20.46-35.82v-253.43c0-5.5,1.07-10.75,3.01-15.55
	c6.16-15.27,21.11-26.04,38.58-26.04h198.55c49.22,0,89.12-39.9,89.12-89.12v-14.74c0-43.98-31.86-80.52-73.76-87.8
	c-4.99-0.87-10.12-1.32-15.36-1.32h-198.55c-22.97,0-41.59-18.62-41.59-41.59v-36.3c0-22.97,18.62-41.59,41.59-41.59h201.94
	c1.96,0,3.91,0.03,5.85,0.08c5.98,0.17,11.9,0.58,17.74,1.24c56.71,6.35,106.57,35.36,140.33,77.77c0.51,0.64,1.02,1.28,1.52,1.93
	c23.1,29.74,38.36,65.86,42.69,105.28c0.72,6.61,1.14,13.32,1.23,20.1v0.02c0.02,0.8,0.03,1.61,0.02,2.4
	c0.01,0.19,0.01,0.37,0.01,0.56c0,62.5-27.39,118.61-70.81,156.97c-16.71,14.76-18.77,40.09-4.71,57.38l123.42,151.74
	c0.93,1.14,1.78,2.3,2.56,3.49l1.87,2.3C4098.6,1835.28,4079.26,1875.91,4044.24,1875.91z"/>
<linearGradient id="SVGID_00000104699464574025581270000008198759009625700519_" gradientUnits="userSpaceOnUse" x1="4653.9556" y1="1259.7975" x2="4179.9976" y2="1733.7555">
	<stop  offset="0" style="stop-color:#E90075"/>
	<stop  offset="1" style="stop-color:#D4CF00"/>
</linearGradient>
<path style="fill:url(#SVGID_00000104699464574025581270000008198759009625700519_);" d="M4603.84,1226.91
	c22.97,0,41.59,18.62,41.59,41.59v379.16c0,0.8-0.01,1.59-0.01,2.38c-1.28,125.07-103.06,226.07-228.44,226.07
	c-125.37,0-227.16-101-228.44-226.07c-0.01-0.79-0.01-1.58-0.01-2.38V1268.5c0-22.97,18.62-41.59,41.59-41.59h49.96
	c22.97,0,41.59,18.62,41.59,41.59v404.46c0,44.25,42.93,80.13,95.89,80.13s95.89-35.88,95.89-80.13V1268.5
	c0-22.97,18.62-41.59,41.59-41.59H4603.84z"/>
<linearGradient id="SVGID_00000114033597288822361890000015026824908990326158_" gradientUnits="userSpaceOnUse" x1="2710.4148" y1="1563.4302" x2="2209.8489" y2="1563.4302">
	<stop  offset="0" style="stop-color:#E90075"/>
	<stop  offset="1" style="stop-color:#D4CF00"/>
</linearGradient>
<path style="fill:url(#SVGID_00000114033597288822361890000015026824908990326158_);" d="M2668.82,1613.02h-291.59
	c-32.77,0-52.8,36.22-35.15,63.83c37.45,58.58,103.07,97.41,177.75,97.41h147.78c22.97,0,41.59,18.62,41.59,41.59v15.99
	c0,22.97-18.62,41.59-41.59,41.59h-147.78c-140.21,0-258.68-93.08-296.97-220.82c-6.24-20.81-10.36-42.55-12.09-64.95
	c-0.51-6.51-0.8-12.99-0.89-19.43c-2.62-171.98,137.52-314.79,312.05-314.79h145.69c22.97,0,41.59,18.62,41.59,41.59v15.99
	c0,22.97-18.62,41.59-41.59,41.59h-147.78c-74.68,0-140.3,38.83-177.75,97.41c-17.65,27.61,2.38,63.83,35.15,63.83h291.59
	c22.97,0,41.59,18.62,41.59,41.59v15.99C2710.41,1594.39,2691.79,1613.02,2668.82,1613.02z"/>
<linearGradient id="SVGID_00000026874089481722293840000016881726600935698357_" gradientUnits="userSpaceOnUse" x1="755.4409" y1="1548.8898" x2="165.1155" y2="1548.8898">
	<stop  offset="0" style="stop-color:#E90075"/>
	<stop  offset="1" style="stop-color:#D4CF00"/>
</linearGradient>
<path style="fill:url(#SVGID_00000026874089481722293840000016881726600935698357_);" d="M752.01,1739.96
	c-57.53,78.84-149.72,130.77-254.16,133.36c-18.38,0.45-36.43-0.63-54.02-3.17c-160.72-22.97-284.22-164.77-278.51-332.5
	c5.39-158.54,124.51-288.24,278.34-310.06c15.03-2.14,30.39-3.24,46.01-3.24c107.74,0,203.24,52.52,262.26,133.35
	c8.66,11.84,0.19,28.5-14.48,28.5h-78.53c-2.74,0-5.46-0.28-8.11-0.81c-6.66-1.31-12.93-4.26-18.2-8.65
	c-49.58-41.21-117.23-61.41-189.32-46.95c-2.48,0.5-4.96,1.03-7.46,1.61c-80.44,18.75-143.86,81.53-163.21,161.82
	c-31.64,131.24,52.45,249.9,171.03,274.68c14.85,3.12,30.24,4.74,46.01,4.74c54.42,0,104.3-19.43,143.08-51.72
	c5.23-4.36,11.46-7.25,18.06-8.55c2.66-0.54,5.38-0.8,8.12-0.8h78.53C752.04,1711.59,760.61,1728.17,752.01,1739.96z"/>
<linearGradient id="SVGID_00000047019676580427830500000000221456075529031303_" gradientUnits="userSpaceOnUse" x1="165.1155" y1="1548.8738" x2="663.4213" y2="1548.8738">
	<stop  offset="0" style="stop-color:#E90075"/>
	<stop  offset="1" style="stop-color:#D4CF00"/>
</linearGradient>
<path style="fill:url(#SVGID_00000047019676580427830500000000221456075529031303_);" d="M659.98,1739.96
	c-50.42,69.14-127.53,117.57-216.16,130.19c-160.72-22.97-284.22-164.77-278.51-332.5c5.39-158.54,124.51-288.24,278.34-310.06
	c88.66,12.59,165.79,61,216.26,130.11c7.51,10.3,2.1,24.24-9.1,27.69c-6.66-1.31-12.93-4.26-18.2-8.65
	c-49.58-41.21-117.23-61.41-189.32-46.95c-31.27-6.48-64.92-6.44-99.48,1.61c-80.44,18.75-143.86,81.53-163.22,161.82
	c-35.6,147.68,75.33,279.42,217.05,279.42c15.76,0,31.16-1.63,46.01-4.74c14.85,3.12,30.24,4.74,46.01,4.74
	c54.42,0,104.3-19.43,143.08-51.72c5.23-4.36,11.46-7.25,18.06-8.55C661.97,1715.82,667.47,1729.7,659.98,1739.96z"/>
<linearGradient id="SVGID_00000021804891679571130500000011392034859290997937_" gradientUnits="userSpaceOnUse" x1="1474.3151" y1="1563.4302" x2="854.3193" y2="1563.4302">
	<stop  offset="0" style="stop-color:#E90075"/>
	<stop  offset="1" style="stop-color:#D4CF00"/>
</linearGradient>
<path style="fill:url(#SVGID_00000021804891679571130500000011392034859290997937_);" d="M1164.32,1253.44
	c-171.2,0-310,138.79-310,309.99c0,171.21,138.79,310,310,310c171.2,0,310-138.79,310-310
	C1474.32,1392.22,1335.52,1253.44,1164.32,1253.44z M953.49,1563.43c0-0.91,0.01-1.82,0.02-2.73
	c1.46-115.18,95.28-208.1,210.81-208.1c103.13,0,188.96,74.04,207.23,171.88c2.36,12.62,3.59,25.64,3.59,38.95
	s-1.23,26.33-3.59,38.95c-18.26,97.83-104.1,171.88-207.23,171.88c-115.53,0-209.35-92.92-210.81-208.1
	C953.49,1565.25,953.49,1564.34,953.49,1563.43z"/>
<linearGradient id="SVGID_00000117653988334795401240000006695434360203010974_" gradientUnits="userSpaceOnUse" x1="953.5068" y1="1563.4302" x2="1456.4548" y2="1563.4302">
	<stop  offset="0" style="stop-color:#E90075"/>
	<stop  offset="1" style="stop-color:#D4CF00"/>
</linearGradient>
<path style="fill:url(#SVGID_00000117653988334795401240000006695434360203010974_);" d="M1204.97,1311.95
	c-137.97,0-250,111.12-251.46,248.75c1.46-115.18,95.28-208.1,210.81-208.1c103.13,0,188.96,74.04,207.23,171.88
	c2.92,12.51,4.46,25.55,4.46,38.95s-1.54,26.44-4.46,38.95c-18.26,97.83-104.1,171.88-207.23,171.88
	c-115.53,0-209.35-92.92-210.81-208.1c1.46,137.64,113.49,248.76,251.46,248.76c138.89,0,251.49-112.59,251.49-251.49
	C1456.45,1424.54,1343.86,1311.95,1204.97,1311.95z"/>
<linearGradient id="SVGID_00000092432903433367716370000000777713983686186396_" gradientUnits="userSpaceOnUse" x1="2072.5537" y1="1563.4302" x2="1573.1935" y2="1563.4302">
	<stop  offset="0" style="stop-color:#E90075"/>
	<stop  offset="1" style="stop-color:#D4CF00"/>
</linearGradient>
<path style="fill:url(#SVGID_00000092432903433367716370000000777713983686186396_);" d="M2072.52,1568.23
	c-0.09,6.44-0.39,12.92-0.89,19.43c-1.73,22.41-5.85,44.14-12.09,64.95c-38.3,127.74-156.77,220.82-296.97,220.82h-147.78
	c-22.97,0-41.59-18.62-41.59-41.59v-15.99c0-22.97,18.62-41.59,41.59-41.59h147.78c103.13,0,188.97-74.05,207.23-171.88
	c2.36-12.62,3.59-25.64,3.59-38.95s-1.24-26.33-3.59-38.95c-18.27-97.83-104.11-171.88-207.23-171.88h-147.78
	c-22.97,0-41.59-18.62-41.59-41.59v-15.99c0-22.97,18.62-41.59,41.59-41.59h145.69C1935,1253.44,2075.14,1396.25,2072.52,1568.23z"
	/>
<linearGradient id="SVGID_00000009564077508001048930000003840658179290351807_" gradientUnits="userSpaceOnUse" x1="1873.9584" y1="1323.1173" x2="1873.9584" y2="1822.4827">
	<stop  offset="0" style="stop-color:#E90075"/>
	<stop  offset="1" style="stop-color:#D4CF00"/>
</linearGradient>
<path style="fill:url(#SVGID_00000009564077508001048930000003840658179290351807_);" d="M2072.56,1572.8
	c0,27.91-4.58,54.74-13.03,79.81c-33.29,98.76-126.67,169.87-236.66,169.87c-55.18,0-106.19-17.9-147.53-48.23h87.21
	c103.13,0,188.97-74.05,207.23-171.88c2.36-12.62,3.59-25.64,3.59-38.95s-1.24-26.33-3.59-38.95
	c-18.27-97.83-104.11-171.88-207.23-171.88h-57.48c35.09-18.82,75.2-29.49,117.8-29.49c136.37,0,247.2,109.32,249.64,245.11
	C2072.55,1569.75,2072.56,1571.28,2072.56,1572.8z"/>
<linearGradient id="SVGID_00000127014237892061389890000004558026519694327226_" gradientUnits="userSpaceOnUse" x1="6141.1772" y1="1323.1173" x2="6141.1772" y2="1822.4827" gradientTransform="matrix(-1 0 0 1 8549.6221 0)">
	<stop  offset="0" style="stop-color:#E90075"/>
	<stop  offset="1" style="stop-color:#D4CF00"/>
</linearGradient>
<path style="fill:url(#SVGID_00000127014237892061389890000004558026519694327226_);" d="M2209.84,1572.8
	c0,27.91,4.58,54.74,13.03,79.81c33.29,98.76,126.67,169.87,236.66,169.87c55.18,0,106.19-17.9,147.53-48.23h-87.21
	c-103.13,0-188.97-74.05-207.23-171.88c-2.36-12.62-3.59-25.64-3.59-38.95c0-13.31,1.24-26.33,3.59-38.95
	c18.27-97.83,104.11-171.88,207.23-171.88h57.48c-35.09-18.82-75.2-29.49-117.8-29.49c-136.37,0-247.2,109.32-249.64,245.11
	C2209.85,1569.75,2209.84,1571.28,2209.84,1572.8z"/>
<linearGradient id="SVGID_00000072973366440434099880000004699053473483046072_" gradientUnits="userSpaceOnUse" x1="5827.5889" y1="1556.7006" x2="5397.1997" y2="1556.7006">
	<stop  offset="0" style="stop-color:#E90075"/>
	<stop  offset="1" style="stop-color:#D4CF00"/>
</linearGradient>
<path style="fill:url(#SVGID_00000072973366440434099880000004699053473483046072_);" d="M5827.59,1302.25v506.45
	c0,38.26-29.63,69.28-66.17,69.28l0,0c-35.25,0-63.83-29.92-63.83-66.83v-127.02c0-38.26-29.63-69.28-66.17-69.28h-38.07
	c-36.54,0-66.17,31.02-66.17,69.28v124.56c0,38.26-29.63,69.28-66.17,69.28l0,0c-35.24,0-63.82-29.92-63.82-66.82V1304.7
	c0-38.26,29.63-69.28,66.17-69.28l0,0c35.24,0,63.82,29.92,63.82,66.82v107.22c0,38.26,29.63,69.28,66.17,69.28h38.07
	c36.54,0,66.17-31.02,66.17-69.28V1304.7c0-38.26,29.62-69.28,66.17-69.28l0,0C5799.01,1235.42,5827.59,1265.34,5827.59,1302.25z"/>
<g>
	
		<linearGradient id="SVGID_00000008115373205500896540000016845880387506493348_" gradientUnits="userSpaceOnUse" x1="5231.5981" y1="1551.5076" x2="4782.0649" y2="1551.5076">
		<stop  offset="0" style="stop-color:#E90075"/>
		<stop  offset="1" style="stop-color:#D4CF00"/>
	</linearGradient>
	<path style="fill:url(#SVGID_00000008115373205500896540000016845880387506493348_);" d="M4838.26,1835.08
		c-37.48-27.35-56.19-66.57-56.19-117.67l0,0c0-19.92,16.15-36.07,36.07-36.07h63.19c23.9,0,43.28,19.38,43.28,43.28v0
		c0,40.88,26.04,61.31,78.12,61.31c25.57,0,44.99-4.96,58.25-14.88c13.23-9.92,19.87-25.99,19.87-48.24
		c0-26.44-9.14-49.73-27.41-69.88c-18.29-20.13-52.08-44.32-101.42-72.58c-62.15-36.07-105.53-68.67-130.2-97.83
		c-24.67-29.15-37-62.06-37-98.73c0-49.89,19.19-88.5,57.56-115.86c38.37-27.35,94.1-41.03,167.2-41.03
		c72.17,0,126.77,13.68,163.78,41.03c37,27.36,55.51,66.58,55.51,117.67l0,0c0,14.44-11.71,26.15-26.15,26.15h-83.93
		c-17.93,0-32.46-14.53-32.46-32.46l0,0c0-21.64-6.4-37.42-19.19-47.34c-12.81-9.92-31.52-14.88-56.19-14.88
		c-50.26,0-75.38,20.15-75.38,60.41c0,22.85,9.36,44.18,28.1,64.02c18.72,19.84,52.77,43.89,102.1,72.13
		c63.04,36.07,106.43,68.84,130.2,98.28c23.75,29.46,35.63,64.02,35.63,103.69c0,51.7-19.42,91.38-58.25,119.02
		c-38.85,27.66-95.25,41.48-169.26,41.48C4930.98,1876.1,4875.71,1862.44,4838.26,1835.08z"/>
</g>
</svg>
