<?xml version="1.0" encoding="utf-8"?>
<!-- Generator: Adobe Illustrator 27.8.1, SVG Export Plug-In . SVG Version: 6.00 Build 0)  -->
<svg version="1.1" id="Layer_1" xmlns="http://www.w3.org/2000/svg" xmlns:xlink="http://www.w3.org/1999/xlink" x="0px" y="0px"
	 viewBox="0 0 3000 3000" style="enable-background:new 0 0 3000 3000;" xml:space="preserve">
<style type="text/css">
	.st0{fill:url(#SVGID_1_);}
	.st1{fill:url(#SVGID_00000088826575428476311050000002956015251619837333_);}
	.st2{fill:url(#SVGID_00000160903134606684685840000012222379745126415530_);}
	.st3{fill:url(#SVGID_00000106857855814829420820000007123767144576722824_);}
</style>
<linearGradient id="SVGID_1_" gradientUnits="userSpaceOnUse" x1="2364.832" y1="1500" x2="661.3517" y2="1500">
	<stop  offset="0" style="stop-color:#E90075"/>
	<stop  offset="1" style="stop-color:#D4CF00"/>
</linearGradient>
<path class="st0" d="M2354.93,2051.37c-166,227.51-432.03,377.36-733.43,384.84c-53.04,1.31-105.12-1.83-155.89-9.15
	c-463.78-66.29-820.17-475.48-803.7-959.47c15.56-457.49,359.3-831.75,803.18-894.74c43.37-6.17,87.7-9.35,132.78-9.35
	c310.91,0,586.49,151.56,756.79,384.8c24.99,34.18,0.56,82.24-41.78,82.24h-226.6c-7.92,0-15.76-0.8-23.4-2.35
	c-19.22-3.78-37.32-12.29-52.52-24.95c-143.08-118.93-338.29-177.22-546.3-135.48c-7.16,1.43-14.32,2.98-21.53,4.66
	c-232.13,54.11-415.12,235.27-470.98,466.96c-91.32,378.71,151.36,721.14,493.54,792.64c42.85,8.99,87.26,13.69,132.78,13.69
	c157.05,0,300.97-56.06,412.89-149.25c15.08-12.57,33.06-20.93,52.12-24.67c7.68-1.55,15.52-2.31,23.44-2.31h226.6
	C2355.01,1969.49,2379.75,2017.35,2354.93,2051.37z"/>
<linearGradient id="SVGID_00000183225883810383681920000018179642557403302327_" gradientUnits="userSpaceOnUse" x1="661.3517" y1="1499.9539" x2="2099.2944" y2="1499.9539">
	<stop  offset="0" style="stop-color:#E90075"/>
	<stop  offset="1" style="stop-color:#D4CF00"/>
</linearGradient>
<path style="fill:url(#SVGID_00000183225883810383681920000018179642557403302327_);" d="M2089.37,2051.37
	c-145.51,199.5-368.01,339.28-623.77,375.69c-463.78-66.29-820.17-475.48-803.7-959.47c15.56-457.49,359.3-831.75,803.18-894.74
	c255.84,36.33,478.42,176.03,624.05,375.45c21.69,29.72,6.05,69.95-26.26,79.9c-19.22-3.78-37.32-12.29-52.52-24.95
	c-143.08-118.93-338.29-177.22-546.3-135.48c-90.24-18.7-187.33-18.58-287.08,4.66c-232.13,54.11-415.12,235.27-470.98,466.96
	c-102.74,426.14,217.37,806.33,626.32,806.33c45.48,0,89.92-4.7,132.78-13.69c42.85,8.99,87.26,13.69,132.78,13.69
	c157.05,0,300.97-56.06,412.89-149.25c15.08-12.57,33.06-20.93,52.12-24.67C2095.1,1981.7,2110.98,2021.77,2089.37,2051.37z"/>
<linearGradient id="SVGID_00000049940916359530308360000014786966567585915784_" gradientUnits="userSpaceOnUse" x1="2089.3599" y1="791.7545" x2="1147.6267" y2="791.7545" gradientTransform="matrix(-1 0 0 -1 3246.9211 2291.9084)">
	<stop  offset="0" style="stop-color:#E90075"/>
	<stop  offset="1" style="stop-color:#D4CF00"/>
</linearGradient>
<path style="fill:url(#SVGID_00000049940916359530308360000014786966567585915784_);" d="M1163.04,1195.34
	c91.77-125.78,238.84-208.62,405.46-212.75c29.32-0.73,58.11,1.01,86.18,5.06c256.39,36.65,453.42,262.86,444.31,530.43
	c-8.6,252.92-198.63,459.82-444.02,494.64c-23.98,3.41-48.48,5.17-73.4,5.17c-171.88,0-324.23-83.78-418.37-212.73
	c-13.81-18.9-0.31-45.47,23.1-45.47h125.27c4.38,0,8.71,0.44,12.93,1.3c10.62,2.09,20.63,6.8,29.04,13.79
	c79.1,65.75,187.01,97.97,302.01,74.9c3.96-0.79,7.92-1.65,11.9-2.57c128.33-29.92,229.49-130.07,260.37-258.15
	c50.48-209.36-83.67-398.67-272.85-438.19c-23.69-4.97-48.24-7.57-73.4-7.57c-86.82,0-166.38,30.99-228.26,82.51
	c-8.34,6.95-18.28,11.57-28.82,13.64c-4.25,0.86-8.58,1.28-12.96,1.28h-125.27C1162.99,1240.61,1149.31,1214.15,1163.04,1195.34z"/>
<linearGradient id="SVGID_00000077282749866078297510000003308651295467601834_" gradientUnits="userSpaceOnUse" x1="1147.6267" y1="791.7289" x2="1942.563" y2="791.7289" gradientTransform="matrix(-1 0 0 -1 3246.9211 2291.9084)">
	<stop  offset="0" style="stop-color:#E90075"/>
	<stop  offset="1" style="stop-color:#D4CF00"/>
</linearGradient>
<path style="fill:url(#SVGID_00000077282749866078297510000003308651295467601834_);" d="M1309.84,1195.34
	c80.44-110.29,203.45-187.56,344.84-207.69c256.39,36.65,453.42,262.86,444.31,530.43c-8.6,252.92-198.63,459.82-444.02,494.64
	c-141.44-20.08-264.49-97.31-344.99-207.56c-11.99-16.43-3.34-38.67,14.52-44.17c10.62,2.09,20.63,6.8,29.04,13.79
	c79.1,65.75,187.01,97.97,302.01,74.9c49.89,10.34,103.56,10.27,158.71-2.57c128.33-29.92,229.49-130.07,260.37-258.15
	c56.8-235.58-120.17-445.76-346.25-445.76c-25.14,0-49.71,2.6-73.4,7.57c-23.69-4.97-48.24-7.57-73.4-7.57
	c-86.82,0-166.38,30.99-228.26,82.51c-8.34,6.95-18.28,11.57-28.82,13.64C1306.67,1233.86,1297.9,1211.71,1309.84,1195.34z"/>
</svg>
