<?xml version="1.0" encoding="utf-8"?>
<!-- Generator: Adobe Illustrator 27.8.1, SVG Export Plug-In . SVG Version: 6.00 Build 0)  -->
<svg version="1.1" id="Layer_1" xmlns="http://www.w3.org/2000/svg" xmlns:xlink="http://www.w3.org/1999/xlink" x="0px" y="0px"
	 viewBox="0 0 6000 3000" style="enable-background:new 0 0 6000 3000;" xml:space="preserve">
<style type="text/css">
	.st0{fill:url(#SVGID_1_);}
	.st1{fill:url(#SVGID_00000064321533187525355310000004891748994964653748_);}
	.st2{fill:url(#SVGID_00000174601645960389872630000010283689510798516377_);}
	.st3{fill:url(#SVGID_00000096748782267612275000000013302459104799628433_);}
	.st4{fill:url(#SVGID_00000101088435988976534300000000947294940161190535_);}
	.st5{display:none;fill:url(#SVGID_00000179609706488658881910000003002369276353984911_);}
	.st6{fill:url(#SVGID_00000088852105843352788880000017071621432385703570_);}
	.st7{fill:url(#SVGID_00000031887798216629657510000004682894012472889518_);}
	.st8{fill:url(#SVGID_00000171719671039867772270000007697496909401009081_);}
	.st9{fill:url(#SVGID_00000135654626063586758750000014073495862763482047_);}
	.st10{fill:url(#SVGID_00000068644617849163394570000005324915200140859579_);}
	.st11{fill:url(#SVGID_00000057870070777574916680000016410920204758915513_);}
	.st12{fill:url(#SVGID_00000126321485080127912430000012915418240255187338_);}
	.st13{fill:url(#SVGID_00000147917647743341562550000010489684688298522022_);}
	.st14{fill:url(#SVGID_00000078040900770287231300000014279412269324203171_);}
	.st15{fill:url(#SVGID_00000051352925886910091480000013900508206855062966_);}
	.st16{fill:url(#SVGID_00000072259653841893102820000000004799632878694310_);}
	.st17{fill:url(#SVGID_00000057131210897655895060000011457954930064467371_);}
	.st18{fill:url(#SVGID_00000134965443912062674970000007394992866164863894_);}
	.st19{fill:url(#SVGID_00000100348880458949267400000018422015411927579834_);}
	.st20{fill:url(#SVGID_00000116206376483345575580000007312122718992051356_);}
	.st21{fill:url(#SVGID_00000129202221155074238460000003870745707118158720_);}
	.st22{fill:url(#SVGID_00000179622771949014677310000001532079487251503758_);}
	.st23{fill:url(#SVGID_00000054977480378302013560000010553170604799436443_);}
	.st24{fill:url(#SVGID_00000154397594504825764520000012931986635426539418_);}
	.st25{fill:url(#SVGID_00000111180164355286347220000002584476858477459638_);}
</style>
<linearGradient id="SVGID_1_" gradientUnits="userSpaceOnUse" x1="3492.0623" y1="1551.3752" x2="2901.7368" y2="1551.3752">
	<stop  offset="0" style="stop-color:#E90075"/>
	<stop  offset="1" style="stop-color:#D4CF00"/>
</linearGradient>
<path class="st0" d="M3488.63,1742.45c-57.53,78.84-149.72,130.77-254.16,133.36c-18.38,0.45-36.43-0.63-54.02-3.17
	c-160.72-22.97-284.22-164.77-278.51-332.5c5.39-158.54,124.51-288.24,278.34-310.06c15.03-2.14,30.39-3.24,46.01-3.24
	c107.74,0,203.24,52.52,262.26,133.35c8.66,11.84,0.19,28.5-14.48,28.5h-78.53c-2.74,0-5.46-0.28-8.11-0.81
	c-6.66-1.31-12.93-4.26-18.2-8.65c-49.58-41.21-117.23-61.41-189.32-46.95c-2.48,0.5-4.96,1.03-7.46,1.61
	c-80.44,18.75-143.86,81.53-163.21,161.82c-31.64,131.24,52.45,249.9,171.03,274.68c14.85,3.12,30.24,4.74,46.01,4.74
	c54.42,0,104.3-19.43,143.08-51.72c5.23-4.36,11.46-7.25,18.06-8.55c2.66-0.54,5.38-0.8,8.12-0.8h78.53
	C3488.66,1714.07,3497.23,1730.66,3488.63,1742.45z"/>
<linearGradient id="SVGID_00000128466628926227878200000010619233698956016820_" gradientUnits="userSpaceOnUse" x1="2901.7368" y1="1551.3593" x2="3400.0427" y2="1551.3593">
	<stop  offset="0" style="stop-color:#E90075"/>
	<stop  offset="1" style="stop-color:#D4CF00"/>
</linearGradient>
<path style="fill:url(#SVGID_00000128466628926227878200000010619233698956016820_);" d="M3396.6,1742.45
	c-50.42,69.14-127.53,117.57-216.16,130.19c-160.72-22.97-284.22-164.77-278.51-332.5c5.39-158.54,124.51-288.24,278.34-310.06
	c88.66,12.59,165.79,61,216.26,130.11c7.51,10.3,2.1,24.24-9.1,27.69c-6.66-1.31-12.93-4.26-18.2-8.65
	c-49.58-41.21-117.23-61.41-189.32-46.95c-31.27-6.48-64.92-6.44-99.48,1.61c-80.44,18.75-143.86,81.53-163.22,161.82
	c-35.6,147.68,75.33,279.42,217.05,279.42c15.76,0,31.16-1.63,46.01-4.74c14.85,3.12,30.24,4.74,46.01,4.74
	c54.42,0,104.3-19.43,143.08-51.72c5.23-4.36,11.46-7.25,18.06-8.55C3398.59,1718.3,3404.09,1732.19,3396.6,1742.45z"/>
<linearGradient id="SVGID_00000015342329304038284970000014904024241516172943_" gradientUnits="userSpaceOnUse" x1="3814.8008" y1="1226.8802" x2="3820.6531" y2="1226.8802">
	<stop  offset="0" style="stop-color:#E90075"/>
	<stop  offset="1" style="stop-color:#D4CF00"/>
</linearGradient>
<path style="fill:url(#SVGID_00000015342329304038284970000014904024241516172943_);" d="M3820.65,1226.84v0.08
	c-1.94-0.05-3.9-0.08-5.85-0.08H3820.65z"/>
<linearGradient id="SVGID_00000145024035825187206050000002419051577662902150_" gradientUnits="userSpaceOnUse" x1="4208.8901" y1="1648.7804" x2="4208.8784" y2="1648.7804">
	<stop  offset="0" style="stop-color:#E90075"/>
	<stop  offset="1" style="stop-color:#D4CF00"/>
</linearGradient>
<path style="fill:url(#SVGID_00000145024035825187206050000002419051577662902150_);" d="M4208.89,1649.97h-0.01v-2.38
	C4208.88,1648.39,4208.88,1649.18,4208.89,1649.97z"/>
<linearGradient id="SVGID_00000148623181947913339630000017698318767439976596_" gradientUnits="userSpaceOnUse" x1="4607.6709" y1="1648.7804" x2="4607.6592" y2="1648.7804">
	<stop  offset="0" style="stop-color:#E90075"/>
	<stop  offset="1" style="stop-color:#D4CF00"/>
</linearGradient>
<path style="fill:url(#SVGID_00000148623181947913339630000017698318767439976596_);" d="M4607.67,1647.59v2.38h-0.01
	C4607.67,1649.18,4607.67,1648.39,4607.67,1647.59z"/>
<linearGradient id="SVGID_00000039129762887589228680000017317816611501983622_" gradientUnits="userSpaceOnUse" x1="4085.9082" y1="1551.375" x2="3571.27" y2="1551.375">
	<stop  offset="0" style="stop-color:#E90075"/>
	<stop  offset="1" style="stop-color:#D4CF00"/>
</linearGradient>
<path style="display:none;fill:url(#SVGID_00000039129762887589228680000017317816611501983622_);" d="M4044.24,1875.91h-66.68
	c-12.53,0-24.39-5.65-32.28-15.37l-36.86-45.39l-121.69-149.6c-1.67-2.05-3.5-3.91-5.49-5.58c-7.43-6.26-16.89-9.77-26.78-9.77
	h-6.52c-22.97,0-41.59,18.62-41.59,41.59v142.53c0,15.25-8.21,28.59-20.46,35.82c-6.19,3.67-13.41,5.77-21.13,5.77h-51.9
	c-7.72,0-14.94-2.1-21.13-5.77c-12.25-7.23-20.46-20.57-20.46-35.82v-253.43c0-5.5,1.07-10.75,3.01-15.55
	c6.16-15.27,21.11-26.04,38.58-26.04h198.55c49.22,0,89.12-39.9,89.12-89.12v-14.74c0-43.98-31.86-80.52-73.76-87.8
	c-4.99-0.87-10.12-1.32-15.36-1.32h-198.55c-22.97,0-41.59-18.62-41.59-41.59v-36.3c0-22.97,18.62-41.59,41.59-41.59h201.94
	c1.96,0,3.91,0.03,5.85,0.08c5.98,0.17,11.9,0.58,17.74,1.24c56.71,6.35,106.57,35.36,140.33,77.77c0.51,0.64,1.02,1.28,1.52,1.93
	c23.1,29.74,38.36,65.86,42.69,105.28c0.72,6.61,1.14,13.32,1.23,20.1v0.02c0.02,0.8,0.03,1.61,0.02,2.4
	c0.01,0.19,0.01,0.37,0.01,0.56c0,62.5-27.39,118.61-70.81,156.97c-16.71,14.76-18.77,40.09-4.71,57.38l123.42,151.74
	c0.93,1.14,1.78,2.3,2.56,3.49l1.87,2.3C4098.6,1835.28,4079.26,1875.91,4044.24,1875.91z"/>
<linearGradient id="SVGID_00000122695473139053565250000017826201161407526064_" gradientUnits="userSpaceOnUse" x1="2710.4148" y1="1563.4302" x2="2209.8489" y2="1563.4302">
	<stop  offset="0" style="stop-color:#E90075"/>
	<stop  offset="1" style="stop-color:#D4CF00"/>
</linearGradient>
<path style="fill:url(#SVGID_00000122695473139053565250000017826201161407526064_);" d="M2668.82,1613.02h-291.59
	c-32.77,0-52.8,36.22-35.15,63.83c37.45,58.58,103.07,97.41,177.75,97.41h147.78c22.97,0,41.59,18.62,41.59,41.59v15.99
	c0,22.97-18.62,41.59-41.59,41.59h-147.78c-140.21,0-258.68-93.08-296.97-220.82c-6.24-20.81-10.36-42.55-12.09-64.95
	c-0.51-6.51-0.8-12.99-0.89-19.43c-2.62-171.98,137.52-314.79,312.05-314.79h145.69c22.97,0,41.59,18.62,41.59,41.59v15.99
	c0,22.97-18.62,41.59-41.59,41.59h-147.78c-74.68,0-140.3,38.83-177.75,97.41c-17.65,27.61,2.38,63.83,35.15,63.83h291.59
	c22.97,0,41.59,18.62,41.59,41.59v15.99C2710.41,1594.39,2691.79,1613.02,2668.82,1613.02z"/>
<linearGradient id="SVGID_00000132076995323385479360000017525641726588566406_" gradientUnits="userSpaceOnUse" x1="755.4409" y1="1548.8898" x2="165.1155" y2="1548.8898">
	<stop  offset="0" style="stop-color:#E90075"/>
	<stop  offset="1" style="stop-color:#D4CF00"/>
</linearGradient>
<path style="fill:url(#SVGID_00000132076995323385479360000017525641726588566406_);" d="M752.01,1739.96
	c-57.53,78.84-149.72,130.77-254.16,133.36c-18.38,0.45-36.43-0.63-54.02-3.17c-160.72-22.97-284.22-164.77-278.51-332.5
	c5.39-158.54,124.51-288.24,278.34-310.06c15.03-2.14,30.39-3.24,46.01-3.24c107.74,0,203.24,52.52,262.26,133.35
	c8.66,11.84,0.19,28.5-14.48,28.5h-78.53c-2.74,0-5.46-0.28-8.11-0.81c-6.66-1.31-12.93-4.26-18.2-8.65
	c-49.58-41.21-117.23-61.41-189.32-46.95c-2.48,0.5-4.96,1.03-7.46,1.61c-80.44,18.75-143.86,81.53-163.21,161.82
	c-31.64,131.24,52.45,249.9,171.03,274.68c14.85,3.12,30.24,4.74,46.01,4.74c54.42,0,104.3-19.43,143.08-51.72
	c5.23-4.36,11.46-7.25,18.06-8.55c2.66-0.54,5.38-0.8,8.12-0.8h78.53C752.04,1711.59,760.61,1728.17,752.01,1739.96z"/>
<linearGradient id="SVGID_00000011736235476825020250000016170398414755053963_" gradientUnits="userSpaceOnUse" x1="165.1155" y1="1548.8738" x2="663.4213" y2="1548.8738">
	<stop  offset="0" style="stop-color:#E90075"/>
	<stop  offset="1" style="stop-color:#D4CF00"/>
</linearGradient>
<path style="fill:url(#SVGID_00000011736235476825020250000016170398414755053963_);" d="M659.98,1739.96
	c-50.42,69.14-127.53,117.57-216.16,130.19c-160.72-22.97-284.22-164.77-278.51-332.5c5.39-158.54,124.51-288.24,278.34-310.06
	c88.66,12.59,165.79,61,216.26,130.11c7.51,10.3,2.1,24.24-9.1,27.69c-6.66-1.31-12.93-4.26-18.2-8.65
	c-49.58-41.21-117.23-61.41-189.32-46.95c-31.27-6.48-64.92-6.44-99.48,1.61c-80.44,18.75-143.86,81.53-163.22,161.82
	c-35.6,147.68,75.33,279.42,217.05,279.42c15.76,0,31.16-1.63,46.01-4.74c14.85,3.12,30.24,4.74,46.01,4.74
	c54.42,0,104.3-19.43,143.08-51.72c5.23-4.36,11.46-7.25,18.06-8.55C661.97,1715.82,667.47,1729.7,659.98,1739.96z"/>
<linearGradient id="SVGID_00000183935928638499130170000007246018790301708721_" gradientUnits="userSpaceOnUse" x1="1474.3151" y1="1563.4302" x2="854.3193" y2="1563.4302">
	<stop  offset="0" style="stop-color:#E90075"/>
	<stop  offset="1" style="stop-color:#D4CF00"/>
</linearGradient>
<path style="fill:url(#SVGID_00000183935928638499130170000007246018790301708721_);" d="M1164.32,1253.44
	c-171.2,0-310,138.79-310,309.99c0,171.21,138.79,310,310,310c171.2,0,310-138.79,310-310
	C1474.32,1392.22,1335.52,1253.44,1164.32,1253.44z M953.49,1563.43c0-0.91,0.01-1.82,0.02-2.73
	c1.46-115.18,95.28-208.1,210.81-208.1c103.13,0,188.96,74.04,207.23,171.88c2.36,12.62,3.59,25.64,3.59,38.95
	s-1.23,26.33-3.59,38.95c-18.26,97.83-104.1,171.88-207.23,171.88c-115.53,0-209.35-92.92-210.81-208.1
	C953.49,1565.25,953.49,1564.34,953.49,1563.43z"/>
<linearGradient id="SVGID_00000070825112531319058910000009664621642715859613_" gradientUnits="userSpaceOnUse" x1="953.5068" y1="1563.4302" x2="1456.4548" y2="1563.4302">
	<stop  offset="0" style="stop-color:#E90075"/>
	<stop  offset="1" style="stop-color:#D4CF00"/>
</linearGradient>
<path style="fill:url(#SVGID_00000070825112531319058910000009664621642715859613_);" d="M1204.97,1311.95
	c-137.97,0-250,111.12-251.46,248.75c1.46-115.18,95.28-208.1,210.81-208.1c103.13,0,188.96,74.04,207.23,171.88
	c2.92,12.51,4.46,25.55,4.46,38.95s-1.54,26.44-4.46,38.95c-18.26,97.83-104.1,171.88-207.23,171.88
	c-115.53,0-209.35-92.92-210.81-208.1c1.46,137.64,113.49,248.76,251.46,248.76c138.89,0,251.49-112.59,251.49-251.49
	C1456.45,1424.54,1343.86,1311.95,1204.97,1311.95z"/>
<linearGradient id="SVGID_00000021110013616825566690000015400310509520976788_" gradientUnits="userSpaceOnUse" x1="2072.5537" y1="1563.4302" x2="1573.1935" y2="1563.4302">
	<stop  offset="0" style="stop-color:#E90075"/>
	<stop  offset="1" style="stop-color:#D4CF00"/>
</linearGradient>
<path style="fill:url(#SVGID_00000021110013616825566690000015400310509520976788_);" d="M2072.52,1568.23
	c-0.09,6.44-0.39,12.92-0.89,19.43c-1.73,22.41-5.85,44.14-12.09,64.95c-38.3,127.74-156.77,220.82-296.97,220.82h-147.78
	c-22.97,0-41.59-18.62-41.59-41.59v-15.99c0-22.97,18.62-41.59,41.59-41.59h147.78c103.13,0,188.97-74.05,207.23-171.88
	c2.36-12.62,3.59-25.64,3.59-38.95s-1.24-26.33-3.59-38.95c-18.27-97.83-104.11-171.88-207.23-171.88h-147.78
	c-22.97,0-41.59-18.62-41.59-41.59v-15.99c0-22.97,18.62-41.59,41.59-41.59h145.69C1935,1253.44,2075.14,1396.25,2072.52,1568.23z"
	/>
<linearGradient id="SVGID_00000147901685777337868950000007103696431078578846_" gradientUnits="userSpaceOnUse" x1="1873.9584" y1="1323.1173" x2="1873.9584" y2="1822.4827">
	<stop  offset="0" style="stop-color:#E90075"/>
	<stop  offset="1" style="stop-color:#D4CF00"/>
</linearGradient>
<path style="fill:url(#SVGID_00000147901685777337868950000007103696431078578846_);" d="M2072.56,1572.8
	c0,27.91-4.58,54.74-13.03,79.81c-33.29,98.76-126.67,169.87-236.66,169.87c-55.18,0-106.19-17.9-147.53-48.23h87.21
	c103.13,0,188.97-74.05,207.23-171.88c2.36-12.62,3.59-25.64,3.59-38.95s-1.24-26.33-3.59-38.95
	c-18.27-97.83-104.11-171.88-207.23-171.88h-57.48c35.09-18.82,75.2-29.49,117.8-29.49c136.37,0,247.2,109.32,249.64,245.11
	C2072.55,1569.75,2072.56,1571.28,2072.56,1572.8z"/>
<linearGradient id="SVGID_00000111178727099833493540000017801887081718801339_" gradientUnits="userSpaceOnUse" x1="6141.1772" y1="1323.1173" x2="6141.1772" y2="1822.4827" gradientTransform="matrix(-1 0 0 1 8549.6221 0)">
	<stop  offset="0" style="stop-color:#E90075"/>
	<stop  offset="1" style="stop-color:#D4CF00"/>
</linearGradient>
<path style="fill:url(#SVGID_00000111178727099833493540000017801887081718801339_);" d="M2209.84,1572.8
	c0,27.91,4.58,54.74,13.03,79.81c33.29,98.76,126.67,169.87,236.66,169.87c55.18,0,106.19-17.9,147.53-48.23h-87.21
	c-103.13,0-188.97-74.05-207.23-171.88c-2.36-12.62-3.59-25.64-3.59-38.95c0-13.31,1.24-26.33,3.59-38.95
	c18.27-97.83,104.11-171.88,207.23-171.88h57.48c-35.09-18.82-75.2-29.49-117.8-29.49c-136.37,0-247.2,109.32-249.64,245.11
	C2209.85,1569.75,2209.84,1571.28,2209.84,1572.8z"/>
<linearGradient id="SVGID_00000103967687227178151810000009398898964019166351_" gradientUnits="userSpaceOnUse" x1="5830.7998" y1="1551.4672" x2="5375.5" y2="1551.4672">
	<stop  offset="0" style="stop-color:#E90075"/>
	<stop  offset="1" style="stop-color:#D4CF00"/>
</linearGradient>
<path style="fill:url(#SVGID_00000103967687227178151810000009398898964019166351_);" d="M5830.8,1294.35v511.75
	c0,38.67-31.34,70.01-70,70.01l0,0c-37.29,0-67.52-30.23-67.52-67.53v-128.35c0-38.67-31.34-70.01-70-70.01h-40.27
	c-38.66,0-70,31.34-70,70.01v125.87c0,38.67-31.34,70.01-70,70.01l0,0c-37.28,0-67.51-30.23-67.51-67.52v-511.76
	c0-38.67,31.34-70.01,70-70.01l0,0c37.28,0,67.51,30.23,67.51,67.52v108.34c0,38.67,31.34,70.01,70,70.01h40.27
	c38.66,0,70-31.34,70-70.01v-105.85c0-38.67,31.34-70.01,70-70.01l0,0C5800.57,1226.82,5830.8,1257.06,5830.8,1294.35z"/>
<linearGradient id="SVGID_00000077324932690517948640000015049384520561149056_" gradientUnits="userSpaceOnUse" x1="4085.9104" y1="1551.3593" x2="3571.2678" y2="1551.3593">
	<stop  offset="0" style="stop-color:#E90075"/>
	<stop  offset="1" style="stop-color:#D4CF00"/>
</linearGradient>
<path style="fill:url(#SVGID_00000077324932690517948640000015049384520561149056_);" d="M4044.24,1875.89h-66.68
	c-12.53,0-24.39-5.65-32.28-15.37l-21.28-26.2l-159.07-198.13c-31.31-39.01-3.54-96.91,46.48-96.91c24.61,0,46.89-9.98,63.02-26.1
	c16.13-16.13,26.1-38.41,26.1-63.02v-14.74c0-43.98-31.86-80.52-73.76-87.8c-4.99-0.87-10.12-1.32-15.36-1.32h-198.55
	c-22.96,0-41.59-18.62-41.59-41.59v-36.3c0-22.97,18.63-41.59,41.59-41.59h201.94c1.96,0,3.91,0.03,5.85,0.08
	c5.98,0.17,11.9,0.58,17.75,1.24c56.71,6.35,106.56,35.36,140.32,77.77c0.51,0.64,1.02,1.28,1.52,1.93
	c23.11,29.74,38.37,65.86,42.69,105.28c0.72,6.61,1.15,13.32,1.23,20.1v0.02c0.02,0.8,0.03,1.61,0.02,2.4
	c0.01,0.19,0.01,0.37,0.01,0.56c0,62.5-27.39,118.61-70.81,156.97c-16.71,14.76-18.77,40.09-4.71,57.38l123.43,151.74
	c0.92,1.14,1.78,2.3,2.55,3.49l1.87,2.3C4098.61,1835.26,4079.26,1875.89,4044.24,1875.89z"/>
<linearGradient id="SVGID_00000107547083511522436740000011704510367142910107_" gradientUnits="userSpaceOnUse" x1="3571.2678" y1="1551.3593" x2="4021.5903" y2="1551.3593">
	<stop  offset="0" style="stop-color:#E90075"/>
	<stop  offset="1" style="stop-color:#D4CF00"/>
</linearGradient>
<path style="fill:url(#SVGID_00000107547083511522436740000011704510367142910107_);" d="M3979.92,1875.89h-2.36
	c-12.53,0-24.39-5.65-32.28-15.37l-21.28-26.2l-159.07-198.13c-31.31-39.01-3.54-96.91,46.48-96.91c24.61,0,46.89-9.98,63.02-26.1
	c16.13-16.13,26.1-38.41,26.1-63.02v-14.74c0-43.98-31.86-80.52-73.76-87.8c-4.99-0.87-10.12-1.32-15.36-1.32h-198.55
	c-22.96,0-41.59-18.62-41.59-41.59v-36.3c0-22.97,18.63-41.59,41.59-41.59h137.62c1.96,0,3.91,0.03,5.85,0.08
	c5.98,0.17,11.9,0.58,17.75,1.24c56.71,6.35,106.56,35.36,140.32,77.77c0.51,0.64,1.02,1.28,1.52,1.93
	c23.11,29.74,38.37,65.86,42.69,105.28c0.72,6.61,1.15,13.32,1.23,20.1v0.02c0.02,0.8,0.03,1.61,0.02,2.4
	c0.01,0.19,0.01,0.37,0.01,0.56c0,62.5-27.39,118.61-70.81,156.97c-16.71,14.76-18.77,40.09-4.71,57.38l123.43,151.74
	c0.92,1.14,1.78,2.3,2.55,3.49l1.87,2.3C4034.29,1835.26,4014.94,1875.89,3979.92,1875.89z"/>
<g>
	
		<linearGradient id="SVGID_00000144320738041666940270000003881737727516419517_" gradientUnits="userSpaceOnUse" x1="5251.1318" y1="1551.516" x2="4801.5986" y2="1551.516">
		<stop  offset="0" style="stop-color:#E90075"/>
		<stop  offset="1" style="stop-color:#D4CF00"/>
	</linearGradient>
	<path style="fill:url(#SVGID_00000144320738041666940270000003881737727516419517_);" d="M4857.79,1835.08
		c-37.48-27.35-56.19-66.57-56.19-117.67l0,0c0-19.92,16.15-36.07,36.07-36.07h63.19c23.9,0,43.28,19.38,43.28,43.28v0
		c0,40.88,26.04,61.31,78.12,61.31c25.57,0,44.99-4.96,58.25-14.88c13.23-9.92,19.87-25.99,19.87-48.24
		c0-26.44-9.14-49.73-27.41-69.88c-18.29-20.13-52.08-44.32-101.42-72.58c-62.15-36.07-105.53-68.67-130.2-97.83
		c-24.67-29.15-37-62.06-37-98.73c0-49.89,19.19-88.5,57.56-115.86c38.38-27.35,94.1-41.03,167.2-41.03
		c72.17,0,126.77,13.68,163.78,41.03c37,27.36,55.51,66.58,55.51,117.67l0,0c0,14.44-11.71,26.15-26.15,26.15h-83.93
		c-17.93,0-32.46-14.53-32.46-32.46l0,0c0-21.64-6.4-37.42-19.19-47.34c-12.81-9.92-31.52-14.88-56.19-14.88
		c-50.26,0-75.38,20.15-75.38,60.41c0,22.85,9.36,44.18,28.1,64.02c18.72,19.84,52.77,43.89,102.1,72.13
		c63.04,36.07,106.43,68.84,130.2,98.28c23.75,29.46,35.63,64.02,35.63,103.69c0,51.7-19.42,91.38-58.25,119.02
		c-38.85,27.66-95.25,41.48-169.26,41.48C4950.52,1876.11,4895.24,1862.44,4857.79,1835.08z"/>
</g>
<linearGradient id="SVGID_00000160875124800232346910000002735883322823060098_" gradientUnits="userSpaceOnUse" x1="5517.4194" y1="810.0773" x2="4871.5542" y2="810.0773" gradientTransform="matrix(0 1 -1 0 5242.4771 -3641.4744)">
	<stop  offset="0" style="stop-color:#E90075"/>
	<stop  offset="1" style="stop-color:#D4CF00"/>
</linearGradient>
<path style="fill:url(#SVGID_00000160875124800232346910000002735883322823060098_);" d="M4428,1875.9
	c-5.91-0.12-11.86-0.5-17.83-1.15c-20.56-2.24-40.51-7.56-59.62-15.64c-117.24-49.54-202.67-202.76-202.67-384.1v-191.13
	c0-29.71,17.09-53.79,38.17-53.79h14.67c21.08,0,38.17,24.08,38.17,53.79v191.13c0,133.39,67.96,244.41,157.76,268.03
	c11.58,3.06,23.53,4.65,35.75,4.65s24.16-1.6,35.75-4.65c89.79-23.63,157.75-134.65,157.75-268.03v-191.13
	c0-29.71,17.09-53.79,38.17-53.79h14.67c21.08,0,38.17,24.08,38.17,53.79v188.43C4716.92,1698.04,4585.84,1879.29,4428,1875.9z"/>
<linearGradient id="SVGID_00000030448814448826240990000012806090087579080084_" gradientUnits="userSpaceOnUse" x1="5260.5591" y1="589.51" x2="5260.5591" y2="1047.8442" gradientTransform="matrix(0 1 -1 0 5242.4771 -3641.4744)">
	<stop  offset="0" style="stop-color:#E90075"/>
	<stop  offset="1" style="stop-color:#D4CF00"/>
</linearGradient>
<path style="fill:url(#SVGID_00000030448814448826240990000012806090087579080084_);" d="M4423.8,1875.96
	c-25.61,0-50.25-5.92-73.25-16.85c-90.64-43.06-155.92-163.83-155.92-306.09c0-71.38,16.43-137.35,44.26-190.81v112.8
	c0,133.39,67.96,244.41,157.76,268.03c11.58,3.06,23.53,4.65,35.75,4.65s24.16-1.6,35.75-4.65
	c89.79-23.63,157.75-134.65,157.75-268.03v-74.35c17.27,45.39,27.06,97.26,27.06,152.36c0,176.38-100.34,319.73-224.97,322.88
	C4426.6,1875.94,4425.2,1875.96,4423.8,1875.96z"/>
<linearGradient id="SVGID_00000131354479501265287140000000911693214310894011_" gradientUnits="userSpaceOnUse" x1="5577.4531" y1="513.4218" x2="5577.4531" y2="836.7323" gradientTransform="matrix(0.8764 0.4815 -0.4815 0.8764 506.8245 -1564.3411)">
	<stop  offset="0" style="stop-color:#E90075"/>
	<stop  offset="1" style="stop-color:#D4CF00"/>
</linearGradient>
<path style="fill:url(#SVGID_00000131354479501265287140000000911693214310894011_);" d="M5228.74,1800.38
	c-8.7,15.84-20.73,29.05-35.3,39.56c-57.41,41.41-154.25,40.74-242.19-7.58c-44.13-24.24-79.33-56.81-102.93-92.18l69.73,38.31
	c82.47,45.31,174.19,41.01,219.29-6.48c5.83-6.12,10.87-12.97,15.02-20.52c4.15-7.55,7.22-15.48,9.27-23.68
	c15.89-63.54-29.66-143.27-112.12-188.57l-45.96-25.26c33.93,4.74,69.33,16.31,103.39,35.02
	c109.04,59.91,163.58,170.64,123.19,248.76C5229.68,1798.64,5229.21,1799.51,5228.74,1800.38z"/>
<linearGradient id="SVGID_00000062874533108537058320000006532979209972547747_" gradientUnits="userSpaceOnUse" x1="5398.1372" y1="187.0658" x2="5398.1372" y2="510.3764" gradientTransform="matrix(-0.8764 -0.4815 0.4815 -0.8764 9584.9238 4288.7612)">
	<stop  offset="0" style="stop-color:#E90075"/>
	<stop  offset="1" style="stop-color:#D4CF00"/>
</linearGradient>
<path style="fill:url(#SVGID_00000062874533108537058320000006532979209972547747_);" d="M4863.01,1296.41
	c8.7-15.84,20.73-29.05,35.3-39.56c57.41-41.41,154.25-40.74,242.19,7.58c44.13,24.25,79.33,56.81,102.93,92.18l-69.73-38.31
	c-82.47-45.31-174.19-41.01-219.29,6.48c-5.83,6.12-10.87,12.97-15.02,20.52s-7.22,15.48-9.27,23.68
	c-15.89,63.54,29.66,143.27,112.12,188.57l45.96,25.26c-33.93-4.74-69.33-16.31-103.39-35.02
	c-109.04-59.91-163.58-170.64-123.19-248.76C4862.07,1298.15,4862.53,1297.28,4863.01,1296.41z"/>
<linearGradient id="SVGID_00000088108430161678537100000013740227052066003593_" gradientUnits="userSpaceOnUse" x1="5260.0854" y1="-278.0466" x2="5260.0854" y2="-133.0223" gradientTransform="matrix(0 1 -1 0 5242.4771 -3641.4744)">
	<stop  offset="0" style="stop-color:#E90075"/>
	<stop  offset="1" style="stop-color:#D4CF00"/>
</linearGradient>
<path style="fill:url(#SVGID_00000088108430161678537100000013740227052066003593_);" d="M5448.01,1875.96
	c-8.1,0-15.9-5.94-23.18-16.88c-28.68-43.14-49.33-164.13-49.33-306.65c0-71.51,5.2-137.6,14.01-191.16v113
	c0,133.64,21.51,244.86,49.92,268.53c3.67,3.06,7.45,4.66,11.31,4.66c3.86,0,7.65-1.6,11.31-4.66
	c28.41-23.67,49.92-134.9,49.92-268.53v-74.49c5.46,45.47,8.56,97.44,8.56,152.64c0,176.7-31.75,320.32-71.18,323.47
	C5448.9,1875.94,5448.45,1875.96,5448.01,1875.96z"/>
<linearGradient id="SVGID_00000102524999380039671460000012690873849611660169_" gradientUnits="userSpaceOnUse" x1="5392.2173" y1="-588.3226" x2="5392.2173" y2="-443.2983" gradientTransform="matrix(0 -1 1 0 6274.0981 6879.644)">
	<stop  offset="0" style="stop-color:#E90075"/>
	<stop  offset="1" style="stop-color:#D4CF00"/>
</linearGradient>
<path style="fill:url(#SVGID_00000102524999380039671460000012690873849611660169_);" d="M5758.29,1230.08
	c8.1,0,15.9,5.94,23.18,16.88c28.68,43.14,49.33,164.13,49.33,306.65c0,71.51-5.2,137.6-14.01,191.16v-113
	c0-133.64-21.51-244.86-49.92-268.53c-3.67-3.06-7.45-4.66-11.31-4.66c-3.86,0-7.65,1.6-11.31,4.66
	c-28.41,23.67-49.92,134.9-49.92,268.53v74.49c-5.46-45.47-8.56-97.44-8.56-152.64c0-176.7,31.75-320.32,71.18-323.47
	C5757.4,1230.1,5757.85,1230.08,5758.29,1230.08z"/>
<linearGradient id="SVGID_00000119829340271984017330000016036049443052541883_" gradientUnits="userSpaceOnUse" x1="5244.1162" y1="1404.2178" x2="5244.1162" y2="1521.4115" gradientTransform="matrix(-1 0 0 -1 8937.1377 2748.3335)">
	<stop  offset="0" style="stop-color:#E90075"/>
	<stop  offset="1" style="stop-color:#D4CF00"/>
</linearGradient>
<path style="fill:url(#SVGID_00000119829340271984017330000016036049443052541883_);" d="M3571.24,1285.52
	c0-6.55,2.81-12.85,7.99-18.73c20.41-23.18,77.67-39.87,145.11-39.87c33.84,0,65.11,4.2,90.46,11.32h-53.47
	c-63.24,0-115.87,17.38-127.07,40.34c-1.45,2.96-2.2,6.02-2.2,9.14s0.76,6.18,2.2,9.14c11.2,22.96,63.84,40.34,127.07,40.34h35.25
	c-21.52,4.42-46.11,6.92-72.23,6.92c-83.62,0-151.58-25.66-153.07-57.52C3571.25,1286.23,3571.24,1285.88,3571.24,1285.52z"/>
<linearGradient id="SVGID_00000036931451333506654530000002615730446873688978_" gradientUnits="userSpaceOnUse" x1="4765.3999" y1="1057.7349" x2="4765.3999" y2="1174.9287" gradientTransform="matrix(0.6158 0.748 -0.5609 0.4618 1622.6185 -2305.3711)">
	<stop  offset="0" style="stop-color:#E90075"/>
	<stop  offset="1" style="stop-color:#D4CF00"/>
</linearGradient>
<path style="fill:url(#SVGID_00000036931451333506654530000002615730446873688978_);" d="M4006.15,1865.93
	c-3.67,3.02-8.94,3.83-15.43,2.67c-25.57-4.57-70.19-39.69-111.73-90.14c-20.84-25.31-37.74-50.65-49.36-72.89l32.93,40
	c38.94,47.3,81.11,78.65,100.88,76.42c2.55-0.28,4.73-1.13,6.48-2.57c1.75-1.44,3-3.42,3.77-5.87
	c5.98-18.98-16.69-66.38-55.63-113.68l-21.71-26.37c15.73,14.06,32.28,31.3,48.37,50.84c51.49,62.55,78.96,125.23,62,141.07
	C4006.54,1865.59,4006.35,1865.76,4006.15,1865.93z"/>
</svg>
